  0
SECTION
  2
HEADER
  9
$ACADVER
  1
AC1009
  9
$FILLMODE
 70
0
  9
$EXTMIN
 10
-1.0000
 20
-1.2032
 30
0.0000
  9
$EXTMAX
 10
82.4032
 20
31.9081
 30
0.0000
  0
ENDSEC
  0
SECTION
  2
TABLES
  0
TABLE
  2
LTYPE
 70
1
  0
LTYPE
  2
CONTINUOUS
 70
64
  3
Solid line
 72
65
 73
0
 40
0
  0
ENDTAB
  0
TABLE
  2
LAYER
 70
255
  0
LAYER
  2
20
 70
64
 62
7
  6
CONTINUOUS
  0
LAYER
  2
21
 70
64
 62
253
  6
CONTINUOUS
  0
LAYER
  2
22
 70
64
 62
253
  6
CONTINUOUS
  0
LAYER
  2
23
 70
64
 62
7
  6
CONTINUOUS
  0
LAYER
  2
24
 70
64
 62
7
  6
CONTINUOUS
  0
LAYER
  2
45
 70
64
 62
253
  6
CONTINUOUS
  0
LAYER
  2
199
 70
64
 62
253
  6
CONTINUOUS
  0
LAYER
  2
225
 70
64
 62
253
  6
CONTINUOUS
  0
LAYER
  2
226
 70
64
 62
253
  6
CONTINUOUS
  0
LAYER
  2
227
 70
64
 62
253
  6
CONTINUOUS
  0
LAYER
  2
228
 70
64
 62
253
  6
CONTINUOUS
  0
LAYER
  2
229
 70
64
 62
253
  6
CONTINUOUS
  0
LAYER
  2
230
 70
64
 62
253
  6
CONTINUOUS
  0
LAYER
  2
231
 70
64
 62
253
  6
CONTINUOUS
  0
LAYER
  2
248
 70
64
 62
253
  6
CONTINUOUS
  0
LAYER
  2
249
 70
64
 62
253
  6
CONTINUOUS
  0
LAYER
  2
255
 70
64
 62
253
  6
CONTINUOUS
  0
ENDTAB
  0
ENDSEC
  0
SECTION
  2
BLOCKS
  0
BLOCK
  8
0
  2
RECT
 70
64
 10
0.0000
 20
0.0000
 30
0.0000
  3
RECT
  0
SOLID
  8
0
 10
-0.5000
 20
-0.5000
 30
0.0000
 11
0.5000
 21
-0.5000
 31
0.0000
 12
-0.5000
 22
0.5000
 32
0.0000
 13
0.5000
 23
0.5000
 33
0.0000
  0
ENDBLK
  8
0
  0
BLOCK
  8
0
  2
PIE
 70
64
 10
0.0000
 20
0.0000
 30
0.0000
  3
PIE
  0
CIRCLE
  8
0
 10
0.0000
 20
0.0000
 30
0.0000
 40
0.5000
  0
ENDBLK
  8
0
  0
BLOCK
  8
0
  2
OCTAGONP
 70
64
 10
0.0000
 20
0.0000
 30
0.0000
  3
OCTAGONP
  0
POLYLINE
  8
0
 66
1
 10
0.0000
 20
0.0000
 30
0.0000
 40
0.0000
 41
0.0000
 70
1
  0
VERTEX
  8
0
 10
-0.5000
 20
-0.2071
 30
0.0000
  0
VERTEX
  8
0
 10
-0.5000
 20
0.2071
 30
0.0000
  0
VERTEX
  8
0
 10
-0.2071
 20
0.5000
 30
0.0000
  0
VERTEX
  8
0
 10
0.2071
 20
0.5000
 30
0.0000
  0
VERTEX
  8
0
 10
0.5000
 20
0.2071
 30
0.0000
  0
VERTEX
  8
0
 10
0.5000
 20
-0.2071
 30
0.0000
  0
VERTEX
  8
0
 10
0.2071
 20
-0.5000
 30
0.0000
  0
VERTEX
  8
0
 10
-0.2071
 20
-0.5000
 30
0.0000
  0
SEQEND
  8
0
  0
ENDBLK
  8
0
  0
BLOCK
  8
0
  2
SQUAREP
 70
64
 10
0.0000
 20
0.0000
 30
0.0000
  3
SQUAREP
  0
SOLID
  8
0
 10
-0.5000
 20
-0.5000
 30
0.0000
 11
0.5000
 21
-0.5000
 31
0.0000
 12
-0.5000
 22
0.5000
 32
0.0000
 13
0.5000
 23
0.5000
 33
0.0000
  0
ENDBLK
  8
0
  0
BLOCK
  8
0
  2
ROUNDP
 70
64
 10
0.0000
 20
0.0000
 30
0.0000
  3
ROUNDP
  0
CIRCLE
  8
0
 10
0.0000
 20
0.0000
 30
0.0000
 40
0.5000
  0
ENDBLK
  8
0
  0
BLOCK
  8
0
  2
ANNULUSP
 70
64
 10
0.0000
 20
0.0000
 30
0.0000
  3
ANNULUSP
  0
CIRCLE
  8
0
 10
0.0000
 20
0.0000
 30
0.0000
 40
0.5000
  0
ENDBLK
  8
0
  0
BLOCK
  8
0
  2
THERMALP
 70
64
 10
0.0000
 20
0.0000
 30
0.0000
  3
THERMALP
  0
LINE
  8
0
 10
-0.2379
 20
0.4500
 30
0.0000
 11
0.2379
 21
0.4500
 31
0.0000
  0
LINE
  8
0
 10
0.4500
 20
0.2379
 30
0.0000
 11
0.4500
 21
-0.2379
 31
0.0000
  0
LINE
  8
0
 10
0.2379
 20
-0.4500
 30
0.0000
 11
-0.2379
 21
-0.4500
 31
0.0000
  0
LINE
  8
0
 10
-0.4500
 20
-0.2379
 30
0.0000
 11
-0.4500
 21
0.2379
 31
0.0000
  0
ENDBLK
  8
0
  0
BLOCK
  8
0
  2
OCTAGONV
 70
64
 10
0.0000
 20
0.0000
 30
0.0000
  3
OCTAGONV
  0
POLYLINE
  8
0
 66
1
 10
0.0000
 20
0.0000
 30
0.0000
 40
0.0000
 41
0.0000
 70
1
  0
VERTEX
  8
0
 10
-0.5000
 20
-0.2071
 30
0.0000
  0
VERTEX
  8
0
 10
-0.5000
 20
0.2071
 30
0.0000
  0
VERTEX
  8
0
 10
-0.2071
 20
0.5000
 30
0.0000
  0
VERTEX
  8
0
 10
0.2071
 20
0.5000
 30
0.0000
  0
VERTEX
  8
0
 10
0.5000
 20
0.2071
 30
0.0000
  0
VERTEX
  8
0
 10
0.5000
 20
-0.2071
 30
0.0000
  0
VERTEX
  8
0
 10
0.2071
 20
-0.5000
 30
0.0000
  0
VERTEX
  8
0
 10
-0.2071
 20
-0.5000
 30
0.0000
  0
SEQEND
  8
0
  0
ENDBLK
  8
0
  0
BLOCK
  8
0
  2
SQUAREV
 70
64
 10
0.0000
 20
0.0000
 30
0.0000
  3
SQUAREV
  0
SOLID
  8
0
 10
-0.5000
 20
-0.5000
 30
0.0000
 11
0.5000
 21
-0.5000
 31
0.0000
 12
-0.5000
 22
0.5000
 32
0.0000
 13
0.5000
 23
0.5000
 33
0.0000
  0
ENDBLK
  8
0
  0
BLOCK
  8
0
  2
ROUNDV
 70
64
 10
0.0000
 20
0.0000
 30
0.0000
  3
ROUNDV
  0
CIRCLE
  8
0
 10
0.0000
 20
0.0000
 30
0.0000
 40
0.5000
  0
ENDBLK
  8
0
  0
BLOCK
  8
0
  2
ANNULUSV
 70
64
 10
0.0000
 20
0.0000
 30
0.0000
  3
ANNULUSV
  0
CIRCLE
  8
0
 10
0.0000
 20
0.0000
 30
0.0000
 40
0.5000
  0
ENDBLK
  8
0
  0
BLOCK
  8
0
  2
THERMALV
 70
64
 10
0.0000
 20
0.0000
 30
0.0000
  3
THERMALV
  0
LINE
  8
0
 10
-0.2379
 20
0.4500
 30
0.0000
 11
0.2379
 21
0.4500
 31
0.0000
  0
LINE
  8
0
 10
0.4500
 20
0.2379
 30
0.0000
 11
0.4500
 21
-0.2379
 31
0.0000
  0
LINE
  8
0
 10
0.2379
 20
-0.4500
 30
0.0000
 11
-0.2379
 21
-0.4500
 31
0.0000
  0
LINE
  8
0
 10
-0.4500
 20
-0.2379
 30
0.0000
 11
-0.4500
 21
0.2379
 31
0.0000
  0
ENDBLK
  8
0
  0
BLOCK
  8
0
  2
LONGP100
 70
64
 10
0.0000
 20
0.0000
 30
0.0000
  3
LONGP100
  0
POLYLINE
  8
0
 66
1
 10
0.0000
 20
0.0000
 30
0.0000
 40
0.0000
 41
0.0000
 70
1
  0
VERTEX
  8
0
 10
-0.5000
 20
-0.5000
 30
0.0000
  0
VERTEX
  8
0
 10
0.5000
 20
-0.5000
 30
0.0000
 42
1.0000
  0
VERTEX
  8
0
 10
0.5000
 20
0.5000
 30
0.0000
  0
VERTEX
  8
0
 10
-0.5000
 20
0.5000
 30
0.0000
 42
1.0000
  0
SEQEND
  8
0
  0
ENDBLK
  8
0
  0
ENDSEC
  0
SECTION
  2
ENTITIES
  0
LINE
  8
20
 10
-1.0000
 20
-1.0400
 30
0.0000
 11
82.2700
 21
-1.0400
 31
0.0000
  0
LINE
  8
20
 10
82.2700
 20
-1.0400
 30
0.0000
 11
82.2700
 21
26.4600
 31
0.0000
  0
LINE
  8
20
 10
82.2700
 20
26.4600
 30
0.0000
 11
-1.0000
 21
26.4600
 31
0.0000
  0
LINE
  8
20
 10
-1.0000
 20
26.4600
 30
0.0000
 11
-1.0000
 21
-1.0400
 31
0.0000
  0
CIRCLE
  8
20
 10
2.7000
 20
23.0000
 30
0.0000
 40
1.6000
  0
CIRCLE
  8
20
 10
3.1000
 20
3.1000
 30
0.0000
 40
1.6000
  0
CIRCLE
  8
20
 10
78.8000
 20
21.4000
 30
0.0000
 40
1.6000
  0
CIRCLE
  8
20
 10
78.7000
 20
3.4000
 30
0.0000
 40
1.6000
  0
POINT
  8
23
 10
78.1700
 20
15.8100
 30
0.0000
  0
LINE
  8
21
 10
78.1700
 20
15.8379
 30
0.0000
 11
78.1700
 21
15.7821
 31
0.0000
  0
POINT
  8
24
 10
59.3700
 20
20.7900
 30
0.0000
  0
LINE
  8
22
 10
59.3700
 20
20.8179
 30
0.0000
 11
59.3700
 21
20.7621
 31
0.0000
  0
POINT
  8
24
 10
57.1700
 20
6.9500
 30
0.0000
  0
LINE
  8
22
 10
58.1700
 20
5.7500
 30
0.0000
 11
59.6700
 21
5.7500
 31
0.0000
  0
LINE
  8
22
 10
59.6700
 20
5.7500
 30
0.0000
 11
59.6700
 21
8.1500
 31
0.0000
  0
LINE
  8
22
 10
59.6700
 20
8.1500
 30
0.0000
 11
58.1700
 21
8.1500
 31
0.0000
  0
LINE
  8
22
 10
56.1700
 20
5.7500
 30
0.0000
 11
55.0700
 21
5.7500
 31
0.0000
  0
LINE
  8
22
 10
55.0700
 20
5.7500
 30
0.0000
 11
54.6700
 21
6.1500
 31
0.0000
  0
LINE
  8
22
 10
54.6700
 20
6.1500
 30
0.0000
 11
54.6700
 21
7.7500
 31
0.0000
  0
LINE
  8
22
 10
54.6700
 20
7.7500
 30
0.0000
 11
55.0700
 21
8.1500
 31
0.0000
  0
LINE
  8
22
 10
55.0700
 20
8.1500
 30
0.0000
 11
56.1700
 21
8.1500
 31
0.0000
  0
LINE
  8
22
 10
56.7890
 20
7.9660
 30
0.0000
 11
56.7890
 21
5.9340
 31
0.0000
  0
POINT
  8
24
 10
57.2300
 20
10.1900
 30
0.0000
  0
LINE
  8
22
 10
58.2300
 20
8.9900
 30
0.0000
 11
59.7300
 21
8.9900
 31
0.0000
  0
LINE
  8
22
 10
59.7300
 20
8.9900
 30
0.0000
 11
59.7300
 21
11.3900
 31
0.0000
  0
LINE
  8
22
 10
59.7300
 20
11.3900
 30
0.0000
 11
58.2300
 21
11.3900
 31
0.0000
  0
LINE
  8
22
 10
56.2300
 20
8.9900
 30
0.0000
 11
55.1300
 21
8.9900
 31
0.0000
  0
LINE
  8
22
 10
55.1300
 20
8.9900
 30
0.0000
 11
54.7300
 21
9.3900
 31
0.0000
  0
LINE
  8
22
 10
54.7300
 20
9.3900
 30
0.0000
 11
54.7300
 21
10.9900
 31
0.0000
  0
LINE
  8
22
 10
54.7300
 20
10.9900
 30
0.0000
 11
55.1300
 21
11.3900
 31
0.0000
  0
LINE
  8
22
 10
55.1300
 20
11.3900
 30
0.0000
 11
56.2300
 21
11.3900
 31
0.0000
  0
LINE
  8
22
 10
56.8490
 20
11.2060
 30
0.0000
 11
56.8490
 21
9.1740
 31
0.0000
  0
POINT
  8
23
 10
46.2200
 20
19.4400
 30
0.0000
  0
LINE
  8
21
 10
45.7600
 20
19.2700
 30
0.0000
 11
46.2200
 21
19.2700
 31
0.0000
  0
LINE
  8
21
 10
46.6800
 20
19.2700
 30
0.0000
 11
46.2200
 21
19.2700
 31
0.0000
  0
LINE
  8
21
 10
46.2200
 20
19.2700
 30
0.0000
 11
45.9862
 21
19.5800
 31
0.0000
  0
LINE
  8
21
 10
46.2454
 20
19.2854
 30
0.0000
 11
46.4384
 21
19.5800
 31
0.0000
  0
POINT
  8
23
 10
48.6600
 20
19.4400
 30
0.0000
  0
LINE
  8
21
 10
48.2000
 20
19.2700
 30
0.0000
 11
48.6600
 21
19.2700
 31
0.0000
  0
LINE
  8
21
 10
49.1200
 20
19.2700
 30
0.0000
 11
48.6600
 21
19.2700
 31
0.0000
  0
LINE
  8
21
 10
48.6600
 20
19.2700
 30
0.0000
 11
48.4262
 21
19.5800
 31
0.0000
  0
LINE
  8
21
 10
48.6854
 20
19.2854
 30
0.0000
 11
48.8784
 21
19.5800
 31
0.0000
  0
POINT
  8
23
 10
50.9800
 20
19.4400
 30
0.0000
  0
LINE
  8
21
 10
50.5200
 20
19.2700
 30
0.0000
 11
50.9800
 21
19.2700
 31
0.0000
  0
LINE
  8
21
 10
51.4400
 20
19.2700
 30
0.0000
 11
50.9800
 21
19.2700
 31
0.0000
  0
LINE
  8
21
 10
50.9800
 20
19.2700
 30
0.0000
 11
50.7462
 21
19.5800
 31
0.0000
  0
LINE
  8
21
 10
51.0054
 20
19.2854
 30
0.0000
 11
51.1984
 21
19.5800
 31
0.0000
  0
POINT
  8
23
 10
70.8600
 20
9.8100
 30
0.0000
  0
LINE
  8
21
 10
74.0350
 20
12.3500
 30
0.0000
 11
74.0350
 21
7.2700
 31
0.0000
  0
LINE
  8
21
 10
74.0350
 20
7.2700
 30
0.0000
 11
72.1300
 21
7.2700
 31
0.0000
  0
LINE
  8
21
 10
72.1300
 20
7.2700
 30
0.0000
 11
67.6850
 21
7.2700
 31
0.0000
  0
LINE
  8
21
 10
67.6850
 20
7.2700
 30
0.0000
 11
67.6850
 21
12.3500
 31
0.0000
  0
LINE
  8
21
 10
67.6850
 20
12.3500
 30
0.0000
 11
72.1300
 21
12.3500
 31
0.0000
  0
LINE
  8
21
 10
72.1300
 20
12.3500
 30
0.0000
 11
74.0350
 21
12.3500
 31
0.0000
  0
LINE
  8
21
 10
72.1300
 20
12.3500
 30
0.0000
 11
72.1300
 21
7.2700
 31
0.0000
  0
POINT
  8
23
 10
39.9200
 20
21.8900
 30
0.0000
  0
LINE
  8
21
 10
36.7450
 20
19.3500
 30
0.0000
 11
36.7450
 21
24.4300
 31
0.0000
  0
LINE
  8
21
 10
36.7450
 20
24.4300
 30
0.0000
 11
38.6500
 21
24.4300
 31
0.0000
  0
LINE
  8
21
 10
38.6500
 20
24.4300
 30
0.0000
 11
43.0950
 21
24.4300
 31
0.0000
  0
LINE
  8
21
 10
43.0950
 20
24.4300
 30
0.0000
 11
43.0950
 21
19.3500
 31
0.0000
  0
LINE
  8
21
 10
43.0950
 20
19.3500
 30
0.0000
 11
38.6500
 21
19.3500
 31
0.0000
  0
LINE
  8
21
 10
38.6500
 20
19.3500
 30
0.0000
 11
36.7450
 21
19.3500
 31
0.0000
  0
LINE
  8
21
 10
38.6500
 20
19.3500
 30
0.0000
 11
38.6500
 21
24.4300
 31
0.0000
  0
POINT
  8
23
 10
39.9200
 20
16.1100
 30
0.0000
  0
LINE
  8
21
 10
36.7450
 20
13.5700
 30
0.0000
 11
36.7450
 21
18.6500
 31
0.0000
  0
LINE
  8
21
 10
36.7450
 20
18.6500
 30
0.0000
 11
38.6500
 21
18.6500
 31
0.0000
  0
LINE
  8
21
 10
38.6500
 20
18.6500
 30
0.0000
 11
43.0950
 21
18.6500
 31
0.0000
  0
LINE
  8
21
 10
43.0950
 20
18.6500
 30
0.0000
 11
43.0950
 21
13.5700
 31
0.0000
  0
LINE
  8
21
 10
43.0950
 20
13.5700
 30
0.0000
 11
38.6500
 21
13.5700
 31
0.0000
  0
LINE
  8
21
 10
38.6500
 20
13.5700
 30
0.0000
 11
36.7450
 21
13.5700
 31
0.0000
  0
LINE
  8
21
 10
38.6500
 20
13.5700
 30
0.0000
 11
38.6500
 21
18.6500
 31
0.0000
  0
POINT
  8
23
 10
59.4000
 20
18.9900
 30
0.0000
  0
LINE
  8
21
 10
62.3210
 20
13.9100
 30
0.0000
 11
62.3210
 21
24.0700
 31
0.0000
  0
LINE
  8
21
 10
56.4790
 20
24.0700
 30
0.0000
 11
56.4790
 21
13.9100
 31
0.0000
  0
LINE
  8
21
 10
62.3210
 20
13.9100
 30
0.0000
 11
56.4790
 21
13.9100
 31
0.0000
  0
LINE
  8
21
 10
62.3210
 20
24.0700
 30
0.0000
 11
60.4160
 21
24.0700
 31
0.0000
  0
LINE
  8
21
 10
56.4790
 20
24.0700
 30
0.0000
 11
58.3840
 21
24.0700
 31
0.0000
  0
ARC
  8
21
 10
59.4000
 20
24.0700
 30
0.0000
 40
1.0160
 50
180.0000
 51
0.0000
  0
POINT
  8
23
 10
56.0000
 20
2.0600
 30
0.0000
  0
LINE
  8
21
 10
54.7300
 20
5.1080
 30
0.0000
 11
54.7300
 21
-0.4800
 31
0.0000
  0
LINE
  8
21
 10
59.8100
 20
5.1080
 30
0.0000
 11
59.8100
 21
-0.4800
 31
0.0000
  0
LINE
  8
21
 10
59.8100
 20
5.1080
 30
0.0000
 11
54.7300
 21
5.1080
 31
0.0000
  0
LINE
  8
21
 10
59.8100
 20
-0.4800
 30
0.0000
 11
58.5400
 21
-0.4800
 31
0.0000
  0
LINE
  8
21
 10
58.5400
 20
-0.4800
 30
0.0000
 11
56.0000
 21
-0.4800
 31
0.0000
  0
LINE
  8
21
 10
56.0000
 20
-0.4800
 30
0.0000
 11
54.7300
 21
-0.4800
 31
0.0000
  0
LINE
  8
21
 10
56.0000
 20
-0.4800
 30
0.0000
 11
56.0000
 21
0.7900
 31
0.0000
  0
LINE
  8
21
 10
56.0000
 20
0.7900
 30
0.0000
 11
58.5400
 21
0.7900
 31
0.0000
  0
LINE
  8
21
 10
58.5400
 20
0.7900
 30
0.0000
 11
58.5400
 21
-0.4800
 31
0.0000
  0
POINT
  8
23
 10
66.0800
 20
3.0400
 30
0.0000
  0
LINE
  8
21
 10
64.8100
 20
6.0880
 30
0.0000
 11
64.8100
 21
0.5000
 31
0.0000
  0
LINE
  8
21
 10
74.9700
 20
6.0880
 30
0.0000
 11
74.9700
 21
0.5000
 31
0.0000
  0
LINE
  8
21
 10
74.9700
 20
6.0880
 30
0.0000
 11
64.8100
 21
6.0880
 31
0.0000
  0
LINE
  8
21
 10
74.9700
 20
0.5000
 30
0.0000
 11
73.7000
 21
0.5000
 31
0.0000
  0
LINE
  8
21
 10
73.7000
 20
0.5000
 30
0.0000
 11
66.0800
 21
0.5000
 31
0.0000
  0
LINE
  8
21
 10
66.0800
 20
0.5000
 30
0.0000
 11
64.8100
 21
0.5000
 31
0.0000
  0
LINE
  8
21
 10
66.0800
 20
0.5000
 30
0.0000
 11
66.0800
 21
1.7700
 31
0.0000
  0
LINE
  8
21
 10
66.0800
 20
1.7700
 30
0.0000
 11
73.7000
 21
1.7700
 31
0.0000
  0
LINE
  8
21
 10
73.7000
 20
1.7700
 30
0.0000
 11
73.7000
 21
0.5000
 31
0.0000
  0
POINT
  8
23
 10
39.4400
 20
8.8300
 30
0.0000
  0
LINE
  8
21
 10
42.4880
 20
10.1000
 30
0.0000
 11
36.9000
 21
10.1000
 31
0.0000
  0
LINE
  8
21
 10
42.4880
 20
-0.0600
 30
0.0000
 11
36.9000
 21
-0.0600
 31
0.0000
  0
LINE
  8
21
 10
42.4880
 20
-0.0600
 30
0.0000
 11
42.4880
 21
10.1000
 31
0.0000
  0
LINE
  8
21
 10
36.9000
 20
-0.0600
 30
0.0000
 11
36.9000
 21
1.2100
 31
0.0000
  0
LINE
  8
21
 10
36.9000
 20
1.2100
 30
0.0000
 11
36.9000
 21
8.8300
 31
0.0000
  0
LINE
  8
21
 10
36.9000
 20
8.8300
 30
0.0000
 11
36.9000
 21
10.1000
 31
0.0000
  0
LINE
  8
21
 10
36.9000
 20
8.8300
 30
0.0000
 11
38.1700
 21
8.8300
 31
0.0000
  0
LINE
  8
21
 10
38.1700
 20
8.8300
 30
0.0000
 11
38.1700
 21
1.2100
 31
0.0000
  0
LINE
  8
21
 10
38.1700
 20
1.2100
 30
0.0000
 11
36.9000
 21
1.2100
 31
0.0000
  0
POINT
  8
23
 10
78.1900
 20
13.1300
 30
0.0000
  0
INSERT
  8
21
  2
RECT
 10
78.1900
 20
13.1300
 30
0.0000
 41
0.3810
 42
0.7620
 43
1.0000
 50
180.0000
  0
POINT
  8
23
 10
78.1900
 20
8.0700
 30
0.0000
  0
INSERT
  8
21
  2
RECT
 10
78.1900
 20
8.0700
 30
0.0000
 41
0.3810
 42
0.7620
 43
1.0000
 50
180.0000
  0
POINT
  8
23
 10
78.1900
 20
10.6100
 30
0.0000
  0
INSERT
  8
21
  2
RECT
 10
78.1900
 20
10.6100
 30
0.0000
 41
0.3810
 42
0.7620
 43
1.0000
 50
180.0000
  0
POINT
  8
24
 10
59.3700
 20
22.9500
 30
0.0000
  0
INSERT
  8
22
  2
RECT
 10
59.3700
 20
22.9500
 30
0.0000
 41
0.3810
 42
0.7620
 43
1.0000
 50
180.0000
  0
POINT
  8
24
 10
67.7400
 20
0.6800
 30
0.0000
  0
INSERT
  8
22
  2
RECT
 10
67.7400
 20
0.6800
 30
0.0000
 41
0.3810
 42
0.7620
 43
1.0000
 50
0.0000
  0
POINT
  8
24
 10
59.2700
 20
18.5500
 30
0.0000
  0
INSERT
  8
22
  2
RECT
 10
59.2700
 20
18.5500
 30
0.0000
 41
0.3810
 42
0.7620
 43
1.0000
 50
0.0000
  0
POINT
  8
23
 10
63.6000
 20
9.3400
 30
0.0000
  0
LINE
  8
21
 10
61.0600
 20
6.8000
 30
0.0000
 11
66.1400
 21
6.8000
 31
0.0000
  0
LINE
  8
21
 10
66.1400
 20
6.8000
 30
0.0000
 11
66.1400
 21
11.8800
 31
0.0000
  0
LINE
  8
21
 10
66.1400
 20
11.8800
 30
0.0000
 11
61.0600
 21
11.8800
 31
0.0000
  0
LINE
  8
21
 10
61.0600
 20
11.8800
 30
0.0000
 11
61.0600
 21
6.8000
 31
0.0000
  0
LINE
  8
21
 10
63.6000
 20
10.6100
 30
0.0000
 11
63.6000
 21
9.3400
 31
0.0000
  0
LINE
  8
21
 10
64.8700
 20
9.3400
 30
0.0000
 11
63.6000
 21
9.3400
 31
0.0000
  0
LINE
  8
21
 10
63.6000
 20
8.0700
 30
0.0000
 11
63.6000
 21
9.3400
 31
0.0000
  0
LINE
  8
21
 10
63.6000
 20
9.3400
 30
0.0000
 11
62.3300
 21
9.3400
 31
0.0000
  0
CIRCLE
  8
21
 10
63.6000
 20
9.3400
 30
0.0000
 40
2.0080
  0
POINT
  8
23
 10
46.1900
 20
22.9600
 30
0.0000
  0
INSERT
  8
21
  2
RECT
 10
46.1900
 20
22.9600
 30
0.0000
 41
0.3810
 42
0.7620
 43
1.0000
 50
270.0000
  0
POINT
  8
23
 10
48.6300
 20
22.9600
 30
0.0000
  0
INSERT
  8
21
  2
RECT
 10
48.6300
 20
22.9600
 30
0.0000
 41
0.3810
 42
0.7620
 43
1.0000
 50
270.0000
  0
POINT
  8
23
 10
50.9500
 20
22.9600
 30
0.0000
  0
INSERT
  8
21
  2
RECT
 10
50.9500
 20
22.9600
 30
0.0000
 41
0.3810
 42
0.7620
 43
1.0000
 50
270.0000
  0
POINT
  8
23
 10
50.4100
 20
8.5300
 30
0.0000
  0
INSERT
  8
21
  2
RECT
 10
50.4100
 20
8.5300
 30
0.0000
 41
0.3810
 42
0.7620
 43
1.0000
 50
180.0000
  0
POINT
  8
23
 10
46.1700
 20
8.5300
 30
0.0000
  0
INSERT
  8
21
  2
RECT
 10
46.1700
 20
8.5300
 30
0.0000
 41
0.3810
 42
0.7620
 43
1.0000
 50
180.0000
  0
POINT
  8
23
 10
48.1700
 20
13.1900
 30
0.0000
  0
LINE
  8
21
 10
50.3290
 20
16.2380
 30
0.0000
 11
46.0110
 21
16.2380
 31
0.0000
  0
LINE
  8
21
 10
46.0110
 20
10.1420
 30
0.0000
 11
50.3290
 21
10.1420
 31
0.0000
  0
LINE
  8
21
 10
51.2180
 20
14.1880
 30
0.0000
 11
51.2180
 21
12.1740
 31
0.0000
  0
LINE
  8
21
 10
45.1220
 20
14.2180
 30
0.0000
 11
45.1220
 21
12.1740
 31
0.0000
  0
CIRCLE
  8
21
 10
48.1700
 20
13.1900
 30
0.0000
 40
1.7780
  0
POINT
  8
23
 10
48.1700
 20
3.6300
 30
0.0000
  0
LINE
  8
21
 10
50.3290
 20
6.6780
 30
0.0000
 11
46.0110
 21
6.6780
 31
0.0000
  0
LINE
  8
21
 10
46.0110
 20
0.5820
 30
0.0000
 11
50.3290
 21
0.5820
 31
0.0000
  0
LINE
  8
21
 10
51.2180
 20
4.6280
 30
0.0000
 11
51.2180
 21
2.6140
 31
0.0000
  0
LINE
  8
21
 10
45.1220
 20
4.6580
 30
0.0000
 11
45.1220
 21
2.6140
 31
0.0000
  0
CIRCLE
  8
21
 10
48.1700
 20
3.6300
 30
0.0000
 40
1.7780
  0
POINT
  8
23
 10
8.4000
 20
24.1000
 30
0.0000
  0
LINE
  8
21
 10
-0.6000
 20
22.1000
 30
0.0000
 11
-0.6000
 21
-0.9000
 31
0.0000
  0
LINE
  8
21
 10
-0.6000
 20
-0.9000
 30
0.0000
 11
32.4000
 21
-0.9000
 31
0.0000
  0
LINE
  8
21
 10
35.4000
 20
2.1000
 30
0.0000
 11
35.4000
 21
23.1000
 31
0.0000
  0
LINE
  8
21
 10
32.4000
 20
26.1000
 30
0.0000
 11
6.4000
 21
26.1000
 31
0.0000
  0
ARC
  8
21
 10
32.4000
 20
23.1000
 30
0.0000
 40
3.0000
 50
0.0000
 51
90.0000
  0
ARC
  8
21
 10
32.4000
 20
2.1000
 30
0.0000
 40
3.0000
 50
270.0000
 51
0.0000
  0
LINE
  8
21
 10
-0.6000
 20
22.1000
 30
0.0000
 11
4.4000
 21
22.1000
 31
0.0000
  0
LINE
  8
21
 10
4.4000
 20
22.1000
 30
0.0000
 11
6.4000
 21
26.1000
 31
0.0000
  0
LINE
  8
21
 10
27.4875
 20
9.5102
 30
0.0000
 11
28.2247
 21
9.5102
 31
0.0000
  0
LINE
  8
21
 10
28.2247
 20
9.5102
 30
0.0000
 11
27.9790
 21
9.7560
 31
0.0000
  0
LINE
  8
21
 10
27.9790
 20
9.7560
 30
0.0000
 11
28.2247
 21
10.0017
 31
0.0000
  0
LINE
  8
21
 10
28.2247
 20
10.0017
 30
0.0000
 11
27.4875
 21
10.0017
 31
0.0000
  0
LINE
  8
21
 10
27.4875
 20
10.7501
 30
0.0000
 11
27.4875
 21
10.2587
 31
0.0000
  0
LINE
  8
21
 10
27.4875
 20
10.2587
 30
0.0000
 11
28.2247
 21
10.2587
 31
0.0000
  0
LINE
  8
21
 10
28.2247
 20
10.2587
 30
0.0000
 11
28.2247
 21
10.7501
 31
0.0000
  0
LINE
  8
21
 10
27.8561
 20
10.2587
 30
0.0000
 11
27.8561
 21
10.5044
 31
0.0000
  0
LINE
  8
21
 10
28.2247
 20
11.0071
 30
0.0000
 11
27.4875
 21
11.0071
 31
0.0000
  0
LINE
  8
21
 10
27.4875
 20
11.0071
 30
0.0000
 11
27.7332
 21
11.2528
 31
0.0000
  0
LINE
  8
21
 10
27.7332
 20
11.2528
 30
0.0000
 11
27.4875
 21
11.4986
 31
0.0000
  0
LINE
  8
21
 10
27.4875
 20
11.4986
 30
0.0000
 11
28.2247
 21
11.4986
 31
0.0000
  0
LINE
  8
21
 10
27.4875
 20
12.1241
 30
0.0000
 11
27.4875
 21
11.8784
 31
0.0000
  0
LINE
  8
21
 10
27.4875
 20
11.8784
 30
0.0000
 11
27.6103
 21
11.7555
 31
0.0000
  0
LINE
  8
21
 10
27.6103
 20
11.7555
 30
0.0000
 11
28.1018
 21
11.7555
 31
0.0000
  0
LINE
  8
21
 10
28.1018
 20
11.7555
 30
0.0000
 11
28.2247
 21
11.8784
 31
0.0000
  0
LINE
  8
21
 10
28.2247
 20
11.8784
 30
0.0000
 11
28.2247
 21
12.1241
 31
0.0000
  0
LINE
  8
21
 10
28.2247
 20
12.1241
 30
0.0000
 11
28.1018
 21
12.2470
 31
0.0000
  0
LINE
  8
21
 10
28.1018
 20
12.2470
 30
0.0000
 11
27.6103
 21
12.2470
 31
0.0000
  0
LINE
  8
21
 10
27.6103
 20
12.2470
 30
0.0000
 11
27.4875
 21
12.1241
 31
0.0000
  0
LINE
  8
21
 10
27.6103
 20
12.9954
 30
0.0000
 11
27.4875
 21
12.8725
 31
0.0000
  0
LINE
  8
21
 10
27.4875
 20
12.8725
 30
0.0000
 11
27.4875
 21
12.6268
 31
0.0000
  0
LINE
  8
21
 10
27.4875
 20
12.6268
 30
0.0000
 11
27.6103
 21
12.5039
 31
0.0000
  0
LINE
  8
21
 10
27.6103
 20
12.5039
 30
0.0000
 11
27.7332
 21
12.5039
 31
0.0000
  0
LINE
  8
21
 10
27.7332
 20
12.5039
 30
0.0000
 11
27.8561
 21
12.6268
 31
0.0000
  0
LINE
  8
21
 10
27.8561
 20
12.6268
 30
0.0000
 11
27.8561
 21
12.8725
 31
0.0000
  0
LINE
  8
21
 10
27.8561
 20
12.8725
 30
0.0000
 11
27.9790
 21
12.9954
 31
0.0000
  0
LINE
  8
21
 10
27.9790
 20
12.9954
 30
0.0000
 11
28.1018
 21
12.9954
 31
0.0000
  0
LINE
  8
21
 10
28.1018
 20
12.9954
 30
0.0000
 11
28.2247
 21
12.8725
 31
0.0000
  0
LINE
  8
21
 10
28.2247
 20
12.8725
 30
0.0000
 11
28.2247
 21
12.6268
 31
0.0000
  0
LINE
  8
21
 10
28.2247
 20
12.6268
 30
0.0000
 11
28.1018
 21
12.5039
 31
0.0000
  0
LINE
  8
21
 10
28.8295
 20
9.2533
 30
0.0000
 11
28.7067
 21
9.1304
 31
0.0000
  0
LINE
  8
21
 10
28.7067
 20
9.1304
 30
0.0000
 11
28.7067
 21
8.8847
 31
0.0000
  0
LINE
  8
21
 10
28.7067
 20
8.8847
 30
0.0000
 11
28.8295
 21
8.7618
 31
0.0000
  0
LINE
  8
21
 10
28.8295
 20
8.7618
 30
0.0000
 11
29.3210
 21
8.7618
 31
0.0000
  0
LINE
  8
21
 10
29.3210
 20
8.7618
 30
0.0000
 11
29.4439
 21
8.8847
 31
0.0000
  0
LINE
  8
21
 10
29.4439
 20
8.8847
 30
0.0000
 11
29.4439
 21
9.1304
 31
0.0000
  0
LINE
  8
21
 10
29.4439
 20
9.1304
 30
0.0000
 11
29.3210
 21
9.2533
 31
0.0000
  0
LINE
  8
21
 10
29.4439
 20
9.6331
 30
0.0000
 11
29.4439
 21
9.8789
 31
0.0000
  0
LINE
  8
21
 10
29.4439
 20
9.8789
 30
0.0000
 11
29.3210
 21
10.0017
 31
0.0000
  0
LINE
  8
21
 10
29.3210
 20
10.0017
 30
0.0000
 11
29.0753
 21
10.0017
 31
0.0000
  0
LINE
  8
21
 10
29.0753
 20
10.0017
 30
0.0000
 11
28.9524
 21
9.8789
 31
0.0000
  0
LINE
  8
21
 10
28.9524
 20
9.8789
 30
0.0000
 11
28.9524
 21
9.6331
 31
0.0000
  0
LINE
  8
21
 10
28.9524
 20
9.6331
 30
0.0000
 11
29.0753
 21
9.5102
 31
0.0000
  0
LINE
  8
21
 10
29.0753
 20
9.5102
 30
0.0000
 11
29.3210
 21
9.5102
 31
0.0000
  0
LINE
  8
21
 10
29.3210
 20
9.5102
 30
0.0000
 11
29.4439
 21
9.6331
 31
0.0000
  0
LINE
  8
21
 10
29.4439
 20
10.2587
 30
0.0000
 11
28.9524
 21
10.2587
 31
0.0000
  0
LINE
  8
21
 10
28.9524
 20
10.2587
 30
0.0000
 11
28.9524
 21
10.6273
 31
0.0000
  0
LINE
  8
21
 10
28.9524
 20
10.6273
 30
0.0000
 11
29.0753
 21
10.7501
 31
0.0000
  0
LINE
  8
21
 10
29.0753
 20
10.7501
 30
0.0000
 11
29.4439
 21
10.7501
 31
0.0000
  0
LINE
  8
21
 10
28.8295
 20
11.1299
 30
0.0000
 11
29.3210
 21
11.1299
 31
0.0000
  0
LINE
  8
21
 10
29.3210
 20
11.1299
 30
0.0000
 11
29.4439
 21
11.2528
 31
0.0000
  0
LINE
  8
21
 10
28.9524
 20
11.0071
 30
0.0000
 11
28.9524
 21
11.2528
 31
0.0000
  0
LINE
  8
21
 10
29.4439
 20
11.5060
 30
0.0000
 11
28.9524
 21
11.5060
 31
0.0000
  0
LINE
  8
21
 10
29.1982
 20
11.5060
 30
0.0000
 11
28.9524
 21
11.7518
 31
0.0000
  0
LINE
  8
21
 10
28.9524
 20
11.7518
 30
0.0000
 11
28.9524
 21
11.8746
 31
0.0000
  0
LINE
  8
21
 10
29.4439
 20
12.2526
 30
0.0000
 11
29.4439
 21
12.4983
 31
0.0000
  0
LINE
  8
21
 10
29.4439
 20
12.4983
 30
0.0000
 11
29.3210
 21
12.6212
 31
0.0000
  0
LINE
  8
21
 10
29.3210
 20
12.6212
 30
0.0000
 11
29.0753
 21
12.6212
 31
0.0000
  0
LINE
  8
21
 10
29.0753
 20
12.6212
 30
0.0000
 11
28.9524
 21
12.4983
 31
0.0000
  0
LINE
  8
21
 10
28.9524
 20
12.4983
 30
0.0000
 11
28.9524
 21
12.2526
 31
0.0000
  0
LINE
  8
21
 10
28.9524
 20
12.2526
 30
0.0000
 11
29.0753
 21
12.1297
 31
0.0000
  0
LINE
  8
21
 10
29.0753
 20
12.1297
 30
0.0000
 11
29.3210
 21
12.1297
 31
0.0000
  0
LINE
  8
21
 10
29.3210
 20
12.1297
 30
0.0000
 11
29.4439
 21
12.2526
 31
0.0000
  0
LINE
  8
21
 10
28.7067
 20
12.8781
 30
0.0000
 11
28.7067
 21
13.0010
 31
0.0000
  0
LINE
  8
21
 10
28.7067
 20
13.0010
 30
0.0000
 11
29.4439
 21
13.0010
 31
0.0000
  0
LINE
  8
21
 10
29.4439
 20
12.8781
 30
0.0000
 11
29.4439
 21
13.1239
 31
0.0000
  0
LINE
  8
21
 10
28.7067
 20
13.3771
 30
0.0000
 11
28.7067
 21
13.4999
 31
0.0000
  0
LINE
  8
21
 10
28.7067
 20
13.4999
 30
0.0000
 11
29.4439
 21
13.4999
 31
0.0000
  0
LINE
  8
21
 10
29.4439
 20
13.3771
 30
0.0000
 11
29.4439
 21
13.6228
 31
0.0000
  0
LINE
  8
21
 10
29.4439
 20
14.2446
 30
0.0000
 11
29.4439
 21
13.9989
 31
0.0000
  0
LINE
  8
21
 10
29.4439
 20
13.9989
 30
0.0000
 11
29.3210
 21
13.8760
 31
0.0000
  0
LINE
  8
21
 10
29.3210
 20
13.8760
 30
0.0000
 11
29.0753
 21
13.8760
 31
0.0000
  0
LINE
  8
21
 10
29.0753
 20
13.8760
 30
0.0000
 11
28.9524
 21
13.9989
 31
0.0000
  0
LINE
  8
21
 10
28.9524
 20
13.9989
 30
0.0000
 11
28.9524
 21
14.2446
 31
0.0000
  0
LINE
  8
21
 10
28.9524
 20
14.2446
 30
0.0000
 11
29.0753
 21
14.3675
 31
0.0000
  0
LINE
  8
21
 10
29.0753
 20
14.3675
 30
0.0000
 11
29.1982
 21
14.3675
 31
0.0000
  0
LINE
  8
21
 10
29.1982
 20
14.3675
 30
0.0000
 11
29.1982
 21
13.8760
 31
0.0000
  0
LINE
  8
21
 10
29.4439
 20
14.6244
 30
0.0000
 11
28.9524
 21
14.6244
 31
0.0000
  0
LINE
  8
21
 10
29.1982
 20
14.6244
 30
0.0000
 11
28.9524
 21
14.8702
 31
0.0000
  0
LINE
  8
21
 10
28.9524
 20
14.8702
 30
0.0000
 11
28.9524
 21
14.9930
 31
0.0000
  0
LINE
  8
21
 10
32.7147
 20
7.2726
 30
0.0000
 11
31.9775
 21
7.2726
 31
0.0000
  0
LINE
  8
21
 10
31.9775
 20
7.2726
 30
0.0000
 11
31.9775
 21
7.6413
 31
0.0000
  0
LINE
  8
21
 10
31.9775
 20
7.6413
 30
0.0000
 11
32.1003
 21
7.7641
 31
0.0000
  0
LINE
  8
21
 10
32.1003
 20
7.7641
 30
0.0000
 11
32.3461
 21
7.7641
 31
0.0000
  0
LINE
  8
21
 10
32.3461
 20
7.7641
 30
0.0000
 11
32.4690
 21
7.6413
 31
0.0000
  0
LINE
  8
21
 10
32.4690
 20
7.6413
 30
0.0000
 11
32.4690
 21
7.2726
 31
0.0000
  0
LINE
  8
21
 10
32.4690
 20
7.5184
 30
0.0000
 11
32.7147
 21
7.7641
 31
0.0000
  0
LINE
  8
21
 10
32.2232
 20
8.1439
 30
0.0000
 11
32.2232
 21
8.3897
 31
0.0000
  0
LINE
  8
21
 10
32.2232
 20
8.3897
 30
0.0000
 11
32.3461
 21
8.5125
 31
0.0000
  0
LINE
  8
21
 10
32.3461
 20
8.5125
 30
0.0000
 11
32.7147
 21
8.5125
 31
0.0000
  0
LINE
  8
21
 10
32.7147
 20
8.5125
 30
0.0000
 11
32.7147
 21
8.1439
 31
0.0000
  0
LINE
  8
21
 10
32.7147
 20
8.1439
 30
0.0000
 11
32.5918
 21
8.0211
 31
0.0000
  0
LINE
  8
21
 10
32.5918
 20
8.0211
 30
0.0000
 11
32.4690
 21
8.1439
 31
0.0000
  0
LINE
  8
21
 10
32.4690
 20
8.1439
 30
0.0000
 11
32.4690
 21
8.5125
 31
0.0000
  0
LINE
  8
21
 10
31.9775
 20
9.2610
 30
0.0000
 11
32.7147
 21
9.2610
 31
0.0000
  0
LINE
  8
21
 10
32.7147
 20
9.2610
 30
0.0000
 11
32.7147
 21
8.8923
 31
0.0000
  0
LINE
  8
21
 10
32.7147
 20
8.8923
 30
0.0000
 11
32.5918
 21
8.7695
 31
0.0000
  0
LINE
  8
21
 10
32.5918
 20
8.7695
 30
0.0000
 11
32.3461
 21
8.7695
 31
0.0000
  0
LINE
  8
21
 10
32.3461
 20
8.7695
 30
0.0000
 11
32.2232
 21
8.8923
 31
0.0000
  0
LINE
  8
21
 10
32.2232
 20
8.8923
 30
0.0000
 11
32.2232
 21
9.2610
 31
0.0000
  0
LINE
  8
21
 10
32.2232
 20
9.5179
 30
0.0000
 11
32.2232
 21
9.6408
 31
0.0000
  0
LINE
  8
21
 10
32.2232
 20
9.6408
 30
0.0000
 11
32.7147
 21
9.6408
 31
0.0000
  0
LINE
  8
21
 10
32.7147
 20
9.5179
 30
0.0000
 11
32.7147
 21
9.7636
 31
0.0000
  0
LINE
  8
21
 10
31.8546
 20
9.6408
 30
0.0000
 11
31.9775
 21
9.6408
 31
0.0000
  0
LINE
  8
21
 10
32.7147
 20
10.1397
 30
0.0000
 11
32.7147
 21
10.3854
 31
0.0000
  0
LINE
  8
21
 10
32.7147
 20
10.3854
 30
0.0000
 11
32.5918
 21
10.5083
 31
0.0000
  0
LINE
  8
21
 10
32.5918
 20
10.5083
 30
0.0000
 11
32.3461
 21
10.5083
 31
0.0000
  0
LINE
  8
21
 10
32.3461
 20
10.5083
 30
0.0000
 11
32.2232
 21
10.3854
 31
0.0000
  0
LINE
  8
21
 10
32.2232
 20
10.3854
 30
0.0000
 11
32.2232
 21
10.1397
 31
0.0000
  0
LINE
  8
21
 10
32.2232
 20
10.1397
 30
0.0000
 11
32.3461
 21
10.0168
 31
0.0000
  0
LINE
  8
21
 10
32.3461
 20
10.0168
 30
0.0000
 11
32.5918
 21
10.0168
 31
0.0000
  0
LINE
  8
21
 10
32.5918
 20
10.0168
 30
0.0000
 11
32.7147
 21
10.1397
 31
0.0000
  0
LINE
  8
21
 10
32.7147
 20
11.5137
 30
0.0000
 11
32.2232
 21
11.5137
 31
0.0000
  0
LINE
  8
21
 10
32.2232
 20
11.5137
 30
0.0000
 11
31.9775
 21
11.7594
 31
0.0000
  0
LINE
  8
21
 10
31.9775
 20
11.7594
 30
0.0000
 11
32.2232
 21
12.0051
 31
0.0000
  0
LINE
  8
21
 10
32.2232
 20
12.0051
 30
0.0000
 11
32.7147
 21
12.0051
 31
0.0000
  0
LINE
  8
21
 10
32.3461
 20
11.5137
 30
0.0000
 11
32.3461
 21
12.0051
 31
0.0000
  0
LINE
  8
21
 10
32.7147
 20
12.2621
 30
0.0000
 11
32.2232
 21
12.2621
 31
0.0000
  0
LINE
  8
21
 10
32.2232
 20
12.2621
 30
0.0000
 11
32.2232
 21
12.6307
 31
0.0000
  0
LINE
  8
21
 10
32.2232
 20
12.6307
 30
0.0000
 11
32.3461
 21
12.7536
 31
0.0000
  0
LINE
  8
21
 10
32.3461
 20
12.7536
 30
0.0000
 11
32.7147
 21
12.7536
 31
0.0000
  0
LINE
  8
21
 10
32.1003
 20
13.1334
 30
0.0000
 11
32.5918
 21
13.1334
 31
0.0000
  0
LINE
  8
21
 10
32.5918
 20
13.1334
 30
0.0000
 11
32.7147
 21
13.2562
 31
0.0000
  0
LINE
  8
21
 10
32.2232
 20
13.0105
 30
0.0000
 11
32.2232
 21
13.2562
 31
0.0000
  0
LINE
  8
21
 10
32.7147
 20
13.8780
 30
0.0000
 11
32.7147
 21
13.6323
 31
0.0000
  0
LINE
  8
21
 10
32.7147
 20
13.6323
 30
0.0000
 11
32.5918
 21
13.5094
 31
0.0000
  0
LINE
  8
21
 10
32.5918
 20
13.5094
 30
0.0000
 11
32.3461
 21
13.5094
 31
0.0000
  0
LINE
  8
21
 10
32.3461
 20
13.5094
 30
0.0000
 11
32.2232
 21
13.6323
 31
0.0000
  0
LINE
  8
21
 10
32.2232
 20
13.6323
 30
0.0000
 11
32.2232
 21
13.8780
 31
0.0000
  0
LINE
  8
21
 10
32.2232
 20
13.8780
 30
0.0000
 11
32.3461
 21
14.0009
 31
0.0000
  0
LINE
  8
21
 10
32.3461
 20
14.0009
 30
0.0000
 11
32.4690
 21
14.0009
 31
0.0000
  0
LINE
  8
21
 10
32.4690
 20
14.0009
 30
0.0000
 11
32.4690
 21
13.5094
 31
0.0000
  0
LINE
  8
21
 10
32.7147
 20
14.2579
 30
0.0000
 11
32.2232
 21
14.2579
 31
0.0000
  0
LINE
  8
21
 10
32.2232
 20
14.2579
 30
0.0000
 11
32.2232
 21
14.6265
 31
0.0000
  0
LINE
  8
21
 10
32.2232
 20
14.6265
 30
0.0000
 11
32.3461
 21
14.7493
 31
0.0000
  0
LINE
  8
21
 10
32.3461
 20
14.7493
 30
0.0000
 11
32.7147
 21
14.7493
 31
0.0000
  0
LINE
  8
21
 10
32.7147
 20
15.0063
 30
0.0000
 11
32.2232
 21
15.0063
 31
0.0000
  0
LINE
  8
21
 10
32.2232
 20
15.0063
 30
0.0000
 11
32.2232
 21
15.3749
 31
0.0000
  0
LINE
  8
21
 10
32.2232
 20
15.3749
 30
0.0000
 11
32.3461
 21
15.4978
 31
0.0000
  0
LINE
  8
21
 10
32.3461
 20
15.4978
 30
0.0000
 11
32.7147
 21
15.4978
 31
0.0000
  0
LINE
  8
21
 10
32.2232
 20
15.8776
 30
0.0000
 11
32.2232
 21
16.1233
 31
0.0000
  0
LINE
  8
21
 10
32.2232
 20
16.1233
 30
0.0000
 11
32.3461
 21
16.2462
 31
0.0000
  0
LINE
  8
21
 10
32.3461
 20
16.2462
 30
0.0000
 11
32.7147
 21
16.2462
 31
0.0000
  0
LINE
  8
21
 10
32.7147
 20
16.2462
 30
0.0000
 11
32.7147
 21
15.8776
 31
0.0000
  0
LINE
  8
21
 10
32.7147
 20
15.8776
 30
0.0000
 11
32.5918
 21
15.7547
 31
0.0000
  0
LINE
  8
21
 10
32.5918
 20
15.7547
 30
0.0000
 11
32.4690
 21
15.8776
 31
0.0000
  0
LINE
  8
21
 10
32.4690
 20
15.8776
 30
0.0000
 11
32.4690
 21
16.2462
 31
0.0000
  0
LINE
  8
21
 10
33.9339
 20
8.7695
 30
0.0000
 11
33.1967
 21
8.7695
 31
0.0000
  0
LINE
  8
21
 10
33.1967
 20
8.7695
 30
0.0000
 11
33.1967
 21
9.2610
 31
0.0000
  0
LINE
  8
21
 10
33.5653
 20
8.7695
 30
0.0000
 11
33.5653
 21
9.0152
 31
0.0000
  0
LINE
  8
21
 10
33.4424
 20
9.6408
 30
0.0000
 11
33.4424
 21
9.8865
 31
0.0000
  0
LINE
  8
21
 10
33.4424
 20
9.8865
 30
0.0000
 11
33.5653
 21
10.0094
 31
0.0000
  0
LINE
  8
21
 10
33.5653
 20
10.0094
 30
0.0000
 11
33.9339
 21
10.0094
 31
0.0000
  0
LINE
  8
21
 10
33.9339
 20
10.0094
 30
0.0000
 11
33.9339
 21
9.6408
 31
0.0000
  0
LINE
  8
21
 10
33.9339
 20
9.6408
 30
0.0000
 11
33.8110
 21
9.5179
 31
0.0000
  0
LINE
  8
21
 10
33.8110
 20
9.5179
 30
0.0000
 11
33.6882
 21
9.6408
 31
0.0000
  0
LINE
  8
21
 10
33.6882
 20
9.6408
 30
0.0000
 11
33.6882
 21
10.0094
 31
0.0000
  0
LINE
  8
21
 10
33.4424
 20
10.7578
 30
0.0000
 11
33.4424
 21
10.3892
 31
0.0000
  0
LINE
  8
21
 10
33.4424
 20
10.3892
 30
0.0000
 11
33.5653
 21
10.2663
 31
0.0000
  0
LINE
  8
21
 10
33.5653
 20
10.2663
 30
0.0000
 11
33.8110
 21
10.2663
 31
0.0000
  0
LINE
  8
21
 10
33.8110
 20
10.2663
 30
0.0000
 11
33.9339
 21
10.3892
 31
0.0000
  0
LINE
  8
21
 10
33.9339
 20
10.3892
 30
0.0000
 11
33.9339
 21
10.7578
 31
0.0000
  0
LINE
  8
21
 10
33.4424
 20
11.0147
 30
0.0000
 11
33.4424
 21
11.1376
 31
0.0000
  0
LINE
  8
21
 10
33.4424
 20
11.1376
 30
0.0000
 11
33.9339
 21
11.1376
 31
0.0000
  0
LINE
  8
21
 10
33.9339
 20
11.0147
 30
0.0000
 11
33.9339
 21
11.2605
 31
0.0000
  0
LINE
  8
21
 10
33.0738
 20
11.1376
 30
0.0000
 11
33.1967
 21
11.1376
 31
0.0000
  0
LINE
  8
21
 10
33.9339
 20
11.5137
 30
0.0000
 11
33.4424
 21
11.5137
 31
0.0000
  0
LINE
  8
21
 10
33.4424
 20
11.5137
 30
0.0000
 11
33.4424
 21
11.8823
 31
0.0000
  0
LINE
  8
21
 10
33.4424
 20
11.8823
 30
0.0000
 11
33.5653
 21
12.0051
 31
0.0000
  0
LINE
  8
21
 10
33.5653
 20
12.0051
 30
0.0000
 11
33.9339
 21
12.0051
 31
0.0000
  0
LINE
  8
21
 10
34.1796
 20
12.5078
 30
0.0000
 11
34.1796
 21
12.6307
 31
0.0000
  0
LINE
  8
21
 10
34.1796
 20
12.6307
 30
0.0000
 11
34.0568
 21
12.7536
 31
0.0000
  0
LINE
  8
21
 10
34.0568
 20
12.7536
 30
0.0000
 11
33.4424
 21
12.7536
 31
0.0000
  0
LINE
  8
21
 10
33.4424
 20
12.7536
 30
0.0000
 11
33.4424
 21
12.3849
 31
0.0000
  0
LINE
  8
21
 10
33.4424
 20
12.3849
 30
0.0000
 11
33.5653
 21
12.2621
 31
0.0000
  0
LINE
  8
21
 10
33.5653
 20
12.2621
 30
0.0000
 11
33.8110
 21
12.2621
 31
0.0000
  0
LINE
  8
21
 10
33.8110
 20
12.2621
 30
0.0000
 11
33.9339
 21
12.3849
 31
0.0000
  0
LINE
  8
21
 10
33.9339
 20
12.3849
 30
0.0000
 11
33.9339
 21
12.7536
 31
0.0000
  0
LINE
  8
21
 10
33.1967
 20
13.7589
 30
0.0000
 11
33.8110
 21
13.7589
 31
0.0000
  0
LINE
  8
21
 10
33.8110
 20
13.7589
 30
0.0000
 11
33.9339
 21
13.8818
 31
0.0000
  0
LINE
  8
21
 10
33.9339
 20
13.8818
 30
0.0000
 11
33.9339
 21
14.1275
 31
0.0000
  0
LINE
  8
21
 10
33.9339
 20
14.1275
 30
0.0000
 11
33.8110
 21
14.2504
 31
0.0000
  0
LINE
  8
21
 10
33.8110
 20
14.2504
 30
0.0000
 11
33.1967
 21
14.2504
 31
0.0000
  0
LINE
  8
21
 10
33.9339
 20
14.5073
 30
0.0000
 11
33.1967
 21
14.5073
 31
0.0000
  0
LINE
  8
21
 10
33.1967
 20
14.5073
 30
0.0000
 11
33.1967
 21
14.8759
 31
0.0000
  0
LINE
  8
21
 10
33.1967
 20
14.8759
 30
0.0000
 11
33.3195
 21
14.9988
 31
0.0000
  0
LINE
  8
21
 10
33.3195
 20
14.9988
 30
0.0000
 11
33.5653
 21
14.9988
 31
0.0000
  0
LINE
  8
21
 10
33.5653
 20
14.9988
 30
0.0000
 11
33.6882
 21
14.8759
 31
0.0000
  0
LINE
  8
21
 10
33.6882
 20
14.8759
 30
0.0000
 11
33.6882
 21
14.5073
 31
0.0000
  0
LINE
  8
21
 10
1.0075
 20
7.7716
 30
0.0000
 11
1.6218
 21
7.7716
 31
0.0000
  0
LINE
  8
21
 10
1.6218
 20
7.7716
 30
0.0000
 11
1.7447
 21
7.8945
 31
0.0000
  0
LINE
  8
21
 10
1.7447
 20
7.8945
 30
0.0000
 11
1.7447
 21
8.1402
 31
0.0000
  0
LINE
  8
21
 10
1.7447
 20
8.1402
 30
0.0000
 11
1.6218
 21
8.2631
 31
0.0000
  0
LINE
  8
21
 10
1.6218
 20
8.2631
 30
0.0000
 11
1.0075
 21
8.2631
 31
0.0000
  0
LINE
  8
21
 10
1.1303
 20
9.0115
 30
0.0000
 11
1.0075
 21
8.8886
 31
0.0000
  0
LINE
  8
21
 10
1.0075
 20
8.8886
 30
0.0000
 11
1.0075
 21
8.6429
 31
0.0000
  0
LINE
  8
21
 10
1.0075
 20
8.6429
 30
0.0000
 11
1.1303
 21
8.5200
 31
0.0000
  0
LINE
  8
21
 10
1.1303
 20
8.5200
 30
0.0000
 11
1.2532
 21
8.5200
 31
0.0000
  0
LINE
  8
21
 10
1.2532
 20
8.5200
 30
0.0000
 11
1.3761
 21
8.6429
 31
0.0000
  0
LINE
  8
21
 10
1.3761
 20
8.6429
 30
0.0000
 11
1.3761
 21
8.8886
 31
0.0000
  0
LINE
  8
21
 10
1.3761
 20
8.8886
 30
0.0000
 11
1.4990
 21
9.0115
 31
0.0000
  0
LINE
  8
21
 10
1.4990
 20
9.0115
 30
0.0000
 11
1.6218
 21
9.0115
 31
0.0000
  0
LINE
  8
21
 10
1.6218
 20
9.0115
 30
0.0000
 11
1.7447
 21
8.8886
 31
0.0000
  0
LINE
  8
21
 10
1.7447
 20
8.8886
 30
0.0000
 11
1.7447
 21
8.6429
 31
0.0000
  0
LINE
  8
21
 10
1.7447
 20
8.6429
 30
0.0000
 11
1.6218
 21
8.5200
 31
0.0000
  0
LINE
  8
21
 10
1.7447
 20
9.2684
 30
0.0000
 11
1.0075
 21
9.2684
 31
0.0000
  0
LINE
  8
21
 10
1.0075
 20
9.2684
 30
0.0000
 11
1.0075
 21
9.6370
 31
0.0000
  0
LINE
  8
21
 10
1.0075
 20
9.6370
 30
0.0000
 11
1.1303
 21
9.7599
 31
0.0000
  0
LINE
  8
21
 10
1.1303
 20
9.7599
 30
0.0000
 11
1.2532
 21
9.7599
 31
0.0000
  0
LINE
  8
21
 10
1.2532
 20
9.7599
 30
0.0000
 11
1.3761
 21
9.6370
 31
0.0000
  0
LINE
  8
21
 10
1.3761
 20
9.6370
 30
0.0000
 11
1.4990
 21
9.7599
 31
0.0000
  0
LINE
  8
21
 10
1.4990
 20
9.7599
 30
0.0000
 11
1.6218
 21
9.7599
 31
0.0000
  0
LINE
  8
21
 10
1.6218
 20
9.7599
 30
0.0000
 11
1.7447
 21
9.6370
 31
0.0000
  0
LINE
  8
21
 10
1.7447
 20
9.6370
 30
0.0000
 11
1.7447
 21
9.2684
 31
0.0000
  0
LINE
  8
21
 10
1.3761
 20
9.2684
 30
0.0000
 11
1.3761
 21
9.6370
 31
0.0000
  0
LINE
  8
21
 10
1.0075
 20
10.7652
 30
0.0000
 11
1.7447
 21
10.7652
 31
0.0000
  0
LINE
  8
21
 10
1.7447
 20
10.7652
 30
0.0000
 11
1.7447
 21
11.1339
 31
0.0000
  0
LINE
  8
21
 10
1.7447
 20
11.1339
 30
0.0000
 11
1.6218
 21
11.2567
 31
0.0000
  0
LINE
  8
21
 10
1.6218
 20
11.2567
 30
0.0000
 11
1.3761
 21
11.2567
 31
0.0000
  0
LINE
  8
21
 10
1.3761
 20
11.2567
 30
0.0000
 11
1.2532
 21
11.1339
 31
0.0000
  0
LINE
  8
21
 10
1.2532
 20
11.1339
 30
0.0000
 11
1.2532
 21
10.7652
 31
0.0000
  0
LINE
  8
21
 10
1.7447
 20
11.6365
 30
0.0000
 11
1.7447
 21
11.8823
 31
0.0000
  0
LINE
  8
21
 10
1.7447
 20
11.8823
 30
0.0000
 11
1.6218
 21
12.0051
 31
0.0000
  0
LINE
  8
21
 10
1.6218
 20
12.0051
 30
0.0000
 11
1.3761
 21
12.0051
 31
0.0000
  0
LINE
  8
21
 10
1.3761
 20
12.0051
 30
0.0000
 11
1.2532
 21
11.8823
 31
0.0000
  0
LINE
  8
21
 10
1.2532
 20
11.8823
 30
0.0000
 11
1.2532
 21
11.6365
 31
0.0000
  0
LINE
  8
21
 10
1.2532
 20
11.6365
 30
0.0000
 11
1.3761
 21
11.5137
 31
0.0000
  0
LINE
  8
21
 10
1.3761
 20
11.5137
 30
0.0000
 11
1.6218
 21
11.5137
 31
0.0000
  0
LINE
  8
21
 10
1.6218
 20
11.5137
 30
0.0000
 11
1.7447
 21
11.6365
 31
0.0000
  0
LINE
  8
21
 10
1.1303
 20
12.3849
 30
0.0000
 11
1.6218
 21
12.3849
 31
0.0000
  0
LINE
  8
21
 10
1.6218
 20
12.3849
 30
0.0000
 11
1.7447
 21
12.5078
 31
0.0000
  0
LINE
  8
21
 10
1.2532
 20
12.2621
 30
0.0000
 11
1.2532
 21
12.5078
 31
0.0000
  0
LINE
  8
21
 10
1.1303
 20
12.8839
 30
0.0000
 11
1.6218
 21
12.8839
 31
0.0000
  0
LINE
  8
21
 10
1.6218
 20
12.8839
 30
0.0000
 11
1.7447
 21
13.0068
 31
0.0000
  0
LINE
  8
21
 10
1.2532
 20
12.7610
 30
0.0000
 11
1.2532
 21
13.0068
 31
0.0000
  0
LINE
  8
21
 10
1.7447
 20
13.3828
 30
0.0000
 11
1.7447
 21
13.6286
 31
0.0000
  0
LINE
  8
21
 10
1.7447
 20
13.6286
 30
0.0000
 11
1.6218
 21
13.7515
 31
0.0000
  0
LINE
  8
21
 10
1.6218
 20
13.7515
 30
0.0000
 11
1.3761
 21
13.7515
 31
0.0000
  0
LINE
  8
21
 10
1.3761
 20
13.7515
 30
0.0000
 11
1.2532
 21
13.6286
 31
0.0000
  0
LINE
  8
21
 10
1.2532
 20
13.6286
 30
0.0000
 11
1.2532
 21
13.3828
 31
0.0000
  0
LINE
  8
21
 10
1.2532
 20
13.3828
 30
0.0000
 11
1.3761
 21
13.2600
 31
0.0000
  0
LINE
  8
21
 10
1.3761
 20
13.2600
 30
0.0000
 11
1.6218
 21
13.2600
 31
0.0000
  0
LINE
  8
21
 10
1.6218
 20
13.2600
 30
0.0000
 11
1.7447
 21
13.3828
 31
0.0000
  0
LINE
  8
21
 10
1.7447
 20
14.0084
 30
0.0000
 11
1.2532
 21
14.0084
 31
0.0000
  0
LINE
  8
21
 10
1.2532
 20
14.0084
 30
0.0000
 11
1.2532
 21
14.1313
 31
0.0000
  0
LINE
  8
21
 10
1.2532
 20
14.1313
 30
0.0000
 11
1.3761
 21
14.2541
 31
0.0000
  0
LINE
  8
21
 10
1.3761
 20
14.2541
 30
0.0000
 11
1.7447
 21
14.2541
 31
0.0000
  0
LINE
  8
21
 10
1.3761
 20
14.2541
 30
0.0000
 11
1.2532
 21
14.3770
 31
0.0000
  0
LINE
  8
21
 10
1.2532
 20
14.3770
 30
0.0000
 11
1.3761
 21
14.4999
 31
0.0000
  0
LINE
  8
21
 10
1.3761
 20
14.4999
 30
0.0000
 11
1.7447
 21
14.4999
 31
0.0000
  0
LINE
  8
21
 10
2.9639
 20
5.5263
 30
0.0000
 11
2.2267
 21
5.5263
 31
0.0000
  0
LINE
  8
21
 10
2.2267
 20
5.5263
 30
0.0000
 11
2.2267
 21
6.0178
 31
0.0000
  0
LINE
  8
21
 10
2.5953
 20
5.5263
 30
0.0000
 11
2.5953
 21
5.7721
 31
0.0000
  0
LINE
  8
21
 10
2.4724
 20
6.3976
 30
0.0000
 11
2.4724
 21
6.6434
 31
0.0000
  0
LINE
  8
21
 10
2.4724
 20
6.6434
 30
0.0000
 11
2.5953
 21
6.7662
 31
0.0000
  0
LINE
  8
21
 10
2.5953
 20
6.7662
 30
0.0000
 11
2.9639
 21
6.7662
 31
0.0000
  0
LINE
  8
21
 10
2.9639
 20
6.7662
 30
0.0000
 11
2.9639
 21
6.3976
 31
0.0000
  0
LINE
  8
21
 10
2.9639
 20
6.3976
 30
0.0000
 11
2.8410
 21
6.2748
 31
0.0000
  0
LINE
  8
21
 10
2.8410
 20
6.2748
 30
0.0000
 11
2.7182
 21
6.3976
 31
0.0000
  0
LINE
  8
21
 10
2.7182
 20
6.3976
 30
0.0000
 11
2.7182
 21
6.7662
 31
0.0000
  0
LINE
  8
21
 10
2.4724
 20
7.5147
 30
0.0000
 11
2.4724
 21
7.1460
 31
0.0000
  0
LINE
  8
21
 10
2.4724
 20
7.1460
 30
0.0000
 11
2.5953
 21
7.0232
 31
0.0000
  0
LINE
  8
21
 10
2.5953
 20
7.0232
 30
0.0000
 11
2.8410
 21
7.0232
 31
0.0000
  0
LINE
  8
21
 10
2.8410
 20
7.0232
 30
0.0000
 11
2.9639
 21
7.1460
 31
0.0000
  0
LINE
  8
21
 10
2.9639
 20
7.1460
 30
0.0000
 11
2.9639
 21
7.5147
 31
0.0000
  0
LINE
  8
21
 10
2.4724
 20
7.7716
 30
0.0000
 11
2.4724
 21
7.8945
 31
0.0000
  0
LINE
  8
21
 10
2.4724
 20
7.8945
 30
0.0000
 11
2.9639
 21
7.8945
 31
0.0000
  0
LINE
  8
21
 10
2.9639
 20
7.7716
 30
0.0000
 11
2.9639
 21
8.0173
 31
0.0000
  0
LINE
  8
21
 10
2.1038
 20
7.8945
 30
0.0000
 11
2.2267
 21
7.8945
 31
0.0000
  0
LINE
  8
21
 10
2.9639
 20
8.2705
 30
0.0000
 11
2.4724
 21
8.2705
 31
0.0000
  0
LINE
  8
21
 10
2.4724
 20
8.2705
 30
0.0000
 11
2.4724
 21
8.6391
 31
0.0000
  0
LINE
  8
21
 10
2.4724
 20
8.6391
 30
0.0000
 11
2.5953
 21
8.7620
 31
0.0000
  0
LINE
  8
21
 10
2.5953
 20
8.7620
 30
0.0000
 11
2.9639
 21
8.7620
 31
0.0000
  0
LINE
  8
21
 10
3.2096
 20
9.2647
 30
0.0000
 11
3.2096
 21
9.3876
 31
0.0000
  0
LINE
  8
21
 10
3.2096
 20
9.3876
 30
0.0000
 11
3.0868
 21
9.5104
 31
0.0000
  0
LINE
  8
21
 10
3.0868
 20
9.5104
 30
0.0000
 11
2.4724
 21
9.5104
 31
0.0000
  0
LINE
  8
21
 10
2.4724
 20
9.5104
 30
0.0000
 11
2.4724
 21
9.1418
 31
0.0000
  0
LINE
  8
21
 10
2.4724
 20
9.1418
 30
0.0000
 11
2.5953
 21
9.0189
 31
0.0000
  0
LINE
  8
21
 10
2.5953
 20
9.0189
 30
0.0000
 11
2.8410
 21
9.0189
 31
0.0000
  0
LINE
  8
21
 10
2.8410
 20
9.0189
 30
0.0000
 11
2.9639
 21
9.1418
 31
0.0000
  0
LINE
  8
21
 10
2.9639
 20
9.1418
 30
0.0000
 11
2.9639
 21
9.5104
 31
0.0000
  0
LINE
  8
21
 10
2.2267
 20
10.5158
 30
0.0000
 11
2.9639
 21
10.5158
 31
0.0000
  0
LINE
  8
21
 10
2.9639
 20
10.5158
 30
0.0000
 11
2.9639
 21
10.8844
 31
0.0000
  0
LINE
  8
21
 10
2.9639
 20
10.8844
 30
0.0000
 11
2.8410
 21
11.0073
 31
0.0000
  0
LINE
  8
21
 10
2.8410
 20
11.0073
 30
0.0000
 11
2.3495
 21
11.0073
 31
0.0000
  0
LINE
  8
21
 10
2.3495
 20
11.0073
 30
0.0000
 11
2.2267
 21
10.8844
 31
0.0000
  0
LINE
  8
21
 10
2.2267
 20
10.8844
 30
0.0000
 11
2.2267
 21
10.5158
 31
0.0000
  0
LINE
  8
21
 10
2.2267
 20
11.6328
 30
0.0000
 11
2.2267
 21
11.3871
 31
0.0000
  0
LINE
  8
21
 10
2.2267
 20
11.3871
 30
0.0000
 11
2.3495
 21
11.2642
 31
0.0000
  0
LINE
  8
21
 10
2.3495
 20
11.2642
 30
0.0000
 11
2.8410
 21
11.2642
 31
0.0000
  0
LINE
  8
21
 10
2.8410
 20
11.2642
 30
0.0000
 11
2.9639
 21
11.3871
 31
0.0000
  0
LINE
  8
21
 10
2.9639
 20
11.3871
 30
0.0000
 11
2.9639
 21
11.6328
 31
0.0000
  0
LINE
  8
21
 10
2.9639
 20
11.6328
 30
0.0000
 11
2.8410
 21
11.7557
 31
0.0000
  0
LINE
  8
21
 10
2.8410
 20
11.7557
 30
0.0000
 11
2.3495
 21
11.7557
 31
0.0000
  0
LINE
  8
21
 10
2.3495
 20
11.7557
 30
0.0000
 11
2.2267
 21
11.6328
 31
0.0000
  0
LINE
  8
21
 10
2.2267
 20
12.0126
 30
0.0000
 11
2.9639
 21
12.0126
 31
0.0000
  0
LINE
  8
21
 10
2.9639
 20
12.0126
 30
0.0000
 11
2.7182
 21
12.2583
 31
0.0000
  0
LINE
  8
21
 10
2.7182
 20
12.2583
 30
0.0000
 11
2.9639
 21
12.5041
 31
0.0000
  0
LINE
  8
21
 10
2.9639
 20
12.5041
 30
0.0000
 11
2.2267
 21
12.5041
 31
0.0000
  0
LINE
  8
21
 10
2.9639
 20
12.7610
 30
0.0000
 11
2.2267
 21
12.7610
 31
0.0000
  0
LINE
  8
21
 10
2.2267
 20
12.7610
 30
0.0000
 11
2.9639
 21
13.2525
 31
0.0000
  0
LINE
  8
21
 10
2.9639
 20
13.2525
 30
0.0000
 11
2.2267
 21
13.2525
 31
0.0000
  0
LINE
  8
21
 10
2.9639
 20
13.5094
 30
0.0000
 11
2.2267
 21
14.0009
 31
0.0000
  0
LINE
  8
21
 10
2.9639
 20
14.2579
 30
0.0000
 11
2.2267
 21
14.2579
 31
0.0000
  0
LINE
  8
21
 10
2.2267
 20
14.2579
 30
0.0000
 11
2.2267
 21
14.6265
 31
0.0000
  0
LINE
  8
21
 10
2.2267
 20
14.6265
 30
0.0000
 11
2.3495
 21
14.7493
 31
0.0000
  0
LINE
  8
21
 10
2.3495
 20
14.7493
 30
0.0000
 11
2.5953
 21
14.7493
 31
0.0000
  0
LINE
  8
21
 10
2.5953
 20
14.7493
 30
0.0000
 11
2.7182
 21
14.6265
 31
0.0000
  0
LINE
  8
21
 10
2.7182
 20
14.6265
 30
0.0000
 11
2.7182
 21
14.2579
 31
0.0000
  0
LINE
  8
21
 10
2.3495
 20
15.4978
 30
0.0000
 11
2.2267
 21
15.3749
 31
0.0000
  0
LINE
  8
21
 10
2.2267
 20
15.3749
 30
0.0000
 11
2.2267
 21
15.1291
 31
0.0000
  0
LINE
  8
21
 10
2.2267
 20
15.1291
 30
0.0000
 11
2.3495
 21
15.0063
 31
0.0000
  0
LINE
  8
21
 10
2.3495
 20
15.0063
 30
0.0000
 11
2.8410
 21
15.0063
 31
0.0000
  0
LINE
  8
21
 10
2.8410
 20
15.0063
 30
0.0000
 11
2.9639
 21
15.1291
 31
0.0000
  0
LINE
  8
21
 10
2.9639
 20
15.1291
 30
0.0000
 11
2.9639
 21
15.3749
 31
0.0000
  0
LINE
  8
21
 10
2.9639
 20
15.3749
 30
0.0000
 11
2.8410
 21
15.4978
 31
0.0000
  0
LINE
  8
21
 10
2.9639
 20
15.7547
 30
0.0000
 11
2.2267
 21
15.7547
 31
0.0000
  0
LINE
  8
21
 10
2.2267
 20
15.7547
 30
0.0000
 11
2.2267
 21
16.1233
 31
0.0000
  0
LINE
  8
21
 10
2.2267
 20
16.1233
 30
0.0000
 11
2.3495
 21
16.2462
 31
0.0000
  0
LINE
  8
21
 10
2.3495
 20
16.2462
 30
0.0000
 11
2.4724
 21
16.2462
 31
0.0000
  0
LINE
  8
21
 10
2.4724
 20
16.2462
 30
0.0000
 11
2.5953
 21
16.1233
 31
0.0000
  0
LINE
  8
21
 10
2.5953
 20
16.1233
 30
0.0000
 11
2.7182
 21
16.2462
 31
0.0000
  0
LINE
  8
21
 10
2.7182
 20
16.2462
 30
0.0000
 11
2.8410
 21
16.2462
 31
0.0000
  0
LINE
  8
21
 10
2.8410
 20
16.2462
 30
0.0000
 11
2.9639
 21
16.1233
 31
0.0000
  0
LINE
  8
21
 10
2.9639
 20
16.1233
 30
0.0000
 11
2.9639
 21
15.7547
 31
0.0000
  0
LINE
  8
21
 10
2.5953
 20
15.7547
 30
0.0000
 11
2.5953
 21
16.1233
 31
0.0000
  0
LINE
  8
21
 10
8.0097
 20
18.7376
 30
0.0000
 11
7.8148
 21
18.9325
 31
0.0000
  0
LINE
  8
21
 10
7.8148
 20
18.9325
 30
0.0000
 11
7.8148
 21
19.3223
 31
0.0000
  0
LINE
  8
21
 10
7.8148
 20
19.3223
 30
0.0000
 11
8.0097
 21
19.5172
 31
0.0000
  0
LINE
  8
21
 10
8.0097
 20
19.5172
 30
0.0000
 11
8.2046
 21
19.5172
 31
0.0000
  0
LINE
  8
21
 10
8.2046
 20
19.5172
 30
0.0000
 11
8.3995
 21
19.3223
 31
0.0000
  0
LINE
  8
21
 10
8.3995
 20
19.3223
 30
0.0000
 11
8.3995
 21
19.1274
 31
0.0000
  0
LINE
  8
21
 10
8.3995
 20
19.3223
 30
0.0000
 11
8.5944
 21
19.5172
 31
0.0000
  0
LINE
  8
21
 10
8.5944
 20
19.5172
 30
0.0000
 11
8.7893
 21
19.5172
 31
0.0000
  0
LINE
  8
21
 10
8.7893
 20
19.5172
 30
0.0000
 11
8.9842
 21
19.3223
 31
0.0000
  0
LINE
  8
21
 10
8.9842
 20
19.3223
 30
0.0000
 11
8.9842
 21
18.9325
 31
0.0000
  0
LINE
  8
21
 10
8.9842
 20
18.9325
 30
0.0000
 11
8.7893
 21
18.7376
 31
0.0000
  0
LINE
  8
21
 10
7.8148
 20
19.9070
 30
0.0000
 11
8.5944
 21
19.9070
 31
0.0000
  0
LINE
  8
21
 10
8.5944
 20
19.9070
 30
0.0000
 11
8.9842
 21
20.2968
 31
0.0000
  0
LINE
  8
21
 10
8.9842
 20
20.2968
 30
0.0000
 11
8.5944
 21
20.6866
 31
0.0000
  0
LINE
  8
21
 10
8.5944
 20
20.6866
 30
0.0000
 11
7.8148
 21
20.6866
 31
0.0000
  0
LINE
  8
21
 10
8.0097
 20
21.0764
 30
0.0000
 11
7.8148
 21
21.2713
 31
0.0000
  0
LINE
  8
21
 10
7.8148
 20
21.2713
 30
0.0000
 11
7.8148
 21
21.6611
 31
0.0000
  0
LINE
  8
21
 10
7.8148
 20
21.6611
 30
0.0000
 11
8.0097
 21
21.8560
 31
0.0000
  0
LINE
  8
21
 10
8.0097
 20
21.8560
 30
0.0000
 11
8.2046
 21
21.8560
 31
0.0000
  0
LINE
  8
21
 10
8.2046
 20
21.8560
 30
0.0000
 11
8.3995
 21
21.6611
 31
0.0000
  0
LINE
  8
21
 10
8.3995
 20
21.6611
 30
0.0000
 11
8.3995
 21
21.4662
 31
0.0000
  0
LINE
  8
21
 10
8.3995
 20
21.6611
 30
0.0000
 11
8.5944
 21
21.8560
 31
0.0000
  0
LINE
  8
21
 10
8.5944
 20
21.8560
 30
0.0000
 11
8.7893
 21
21.8560
 31
0.0000
  0
LINE
  8
21
 10
8.7893
 20
21.8560
 30
0.0000
 11
8.9842
 21
21.6611
 31
0.0000
  0
LINE
  8
21
 10
8.9842
 20
21.6611
 30
0.0000
 11
8.9842
 21
21.2713
 31
0.0000
  0
LINE
  8
21
 10
8.9842
 20
21.2713
 30
0.0000
 11
8.7893
 21
21.0764
 31
0.0000
  0
LINE
  8
21
 10
10.3548
 20
19.9070
 30
0.0000
 11
11.5242
 21
19.9070
 31
0.0000
  0
LINE
  8
21
 10
11.5242
 20
19.9070
 30
0.0000
 11
11.5242
 21
20.4917
 31
0.0000
  0
LINE
  8
21
 10
11.5242
 20
20.4917
 30
0.0000
 11
11.3293
 21
20.6866
 31
0.0000
  0
LINE
  8
21
 10
11.3293
 20
20.6866
 30
0.0000
 11
10.5497
 21
20.6866
 31
0.0000
  0
LINE
  8
21
 10
10.5497
 20
20.6866
 30
0.0000
 11
10.3548
 21
20.4917
 31
0.0000
  0
LINE
  8
21
 10
10.3548
 20
20.4917
 30
0.0000
 11
10.3548
 21
19.9070
 31
0.0000
  0
LINE
  8
21
 10
10.5497
 20
21.0764
 30
0.0000
 11
10.3548
 21
21.2713
 31
0.0000
  0
LINE
  8
21
 10
10.3548
 20
21.2713
 30
0.0000
 11
10.3548
 21
21.6611
 31
0.0000
  0
LINE
  8
21
 10
10.3548
 20
21.6611
 30
0.0000
 11
10.5497
 21
21.8560
 31
0.0000
  0
LINE
  8
21
 10
10.5497
 20
21.8560
 30
0.0000
 11
10.7446
 21
21.8560
 31
0.0000
  0
LINE
  8
21
 10
10.7446
 20
21.8560
 30
0.0000
 11
10.9395
 21
21.6611
 31
0.0000
  0
LINE
  8
21
 10
10.9395
 20
21.6611
 30
0.0000
 11
11.1344
 21
21.8560
 31
0.0000
  0
LINE
  8
21
 10
11.1344
 20
21.8560
 30
0.0000
 11
11.3293
 21
21.8560
 31
0.0000
  0
LINE
  8
21
 10
11.3293
 20
21.8560
 30
0.0000
 11
11.5242
 21
21.6611
 31
0.0000
  0
LINE
  8
21
 10
11.5242
 20
21.6611
 30
0.0000
 11
11.5242
 21
21.2713
 31
0.0000
  0
LINE
  8
21
 10
11.5242
 20
21.2713
 30
0.0000
 11
11.3293
 21
21.0764
 31
0.0000
  0
LINE
  8
21
 10
11.3293
 20
21.0764
 30
0.0000
 11
11.1344
 21
21.0764
 31
0.0000
  0
LINE
  8
21
 10
11.1344
 20
21.0764
 30
0.0000
 11
10.9395
 21
21.2713
 31
0.0000
  0
LINE
  8
21
 10
10.9395
 20
21.2713
 30
0.0000
 11
10.7446
 21
21.0764
 31
0.0000
  0
LINE
  8
21
 10
10.7446
 20
21.0764
 30
0.0000
 11
10.5497
 21
21.0764
 31
0.0000
  0
LINE
  8
21
 10
10.9395
 20
21.2713
 30
0.0000
 11
10.9395
 21
21.6611
 31
0.0000
  0
LINE
  8
21
 10
12.8948
 20
19.9070
 30
0.0000
 11
14.0642
 21
19.9070
 31
0.0000
  0
LINE
  8
21
 10
14.0642
 20
19.9070
 30
0.0000
 11
14.0642
 21
20.4917
 31
0.0000
  0
LINE
  8
21
 10
14.0642
 20
20.4917
 30
0.0000
 11
13.8693
 21
20.6866
 31
0.0000
  0
LINE
  8
21
 10
13.8693
 20
20.6866
 30
0.0000
 11
13.0897
 21
20.6866
 31
0.0000
  0
LINE
  8
21
 10
13.0897
 20
20.6866
 30
0.0000
 11
12.8948
 21
20.4917
 31
0.0000
  0
LINE
  8
21
 10
12.8948
 20
20.4917
 30
0.0000
 11
12.8948
 21
19.9070
 31
0.0000
  0
LINE
  8
21
 10
12.8948
 20
21.0764
 30
0.0000
 11
12.8948
 21
21.8560
 31
0.0000
  0
LINE
  8
21
 10
12.8948
 20
21.8560
 30
0.0000
 11
13.0897
 21
21.8560
 31
0.0000
  0
LINE
  8
21
 10
13.0897
 20
21.8560
 30
0.0000
 11
13.8693
 21
21.0764
 31
0.0000
  0
LINE
  8
21
 10
13.8693
 20
21.0764
 30
0.0000
 11
14.0642
 21
21.0764
 31
0.0000
  0
LINE
  8
21
 10
15.4348
 20
19.9070
 30
0.0000
 11
16.6042
 21
19.9070
 31
0.0000
  0
LINE
  8
21
 10
16.6042
 20
19.9070
 30
0.0000
 11
16.6042
 21
20.4917
 31
0.0000
  0
LINE
  8
21
 10
16.6042
 20
20.4917
 30
0.0000
 11
16.4093
 21
20.6866
 31
0.0000
  0
LINE
  8
21
 10
16.4093
 20
20.6866
 30
0.0000
 11
15.6297
 21
20.6866
 31
0.0000
  0
LINE
  8
21
 10
15.6297
 20
20.6866
 30
0.0000
 11
15.4348
 21
20.4917
 31
0.0000
  0
LINE
  8
21
 10
15.4348
 20
20.4917
 30
0.0000
 11
15.4348
 21
19.9070
 31
0.0000
  0
LINE
  8
21
 10
15.4348
 20
21.8560
 30
0.0000
 11
15.6297
 21
21.4662
 31
0.0000
  0
LINE
  8
21
 10
15.6297
 20
21.4662
 30
0.0000
 11
16.0195
 21
21.0764
 31
0.0000
  0
LINE
  8
21
 10
16.0195
 20
21.0764
 30
0.0000
 11
16.4093
 21
21.0764
 31
0.0000
  0
LINE
  8
21
 10
16.4093
 20
21.0764
 30
0.0000
 11
16.6042
 21
21.2713
 31
0.0000
  0
LINE
  8
21
 10
16.6042
 20
21.2713
 30
0.0000
 11
16.6042
 21
21.6611
 31
0.0000
  0
LINE
  8
21
 10
16.6042
 20
21.6611
 30
0.0000
 11
16.4093
 21
21.8560
 31
0.0000
  0
LINE
  8
21
 10
16.4093
 20
21.8560
 30
0.0000
 11
16.2144
 21
21.8560
 31
0.0000
  0
LINE
  8
21
 10
16.2144
 20
21.8560
 30
0.0000
 11
16.0195
 21
21.6611
 31
0.0000
  0
LINE
  8
21
 10
16.0195
 20
21.6611
 30
0.0000
 11
16.0195
 21
21.0764
 31
0.0000
  0
LINE
  8
21
 10
17.9748
 20
19.9070
 30
0.0000
 11
19.1442
 21
19.9070
 31
0.0000
  0
LINE
  8
21
 10
19.1442
 20
19.9070
 30
0.0000
 11
19.1442
 21
20.4917
 31
0.0000
  0
LINE
  8
21
 10
19.1442
 20
20.4917
 30
0.0000
 11
18.9493
 21
20.6866
 31
0.0000
  0
LINE
  8
21
 10
18.9493
 20
20.6866
 30
0.0000
 11
18.1697
 21
20.6866
 31
0.0000
  0
LINE
  8
21
 10
18.1697
 20
20.6866
 30
0.0000
 11
17.9748
 21
20.4917
 31
0.0000
  0
LINE
  8
21
 10
17.9748
 20
20.4917
 30
0.0000
 11
17.9748
 21
19.9070
 31
0.0000
  0
LINE
  8
21
 10
17.9748
 20
21.8560
 30
0.0000
 11
17.9748
 21
21.0764
 31
0.0000
  0
LINE
  8
21
 10
17.9748
 20
21.0764
 30
0.0000
 11
18.5595
 21
21.0764
 31
0.0000
  0
LINE
  8
21
 10
18.5595
 20
21.0764
 30
0.0000
 11
18.3646
 21
21.4662
 31
0.0000
  0
LINE
  8
21
 10
18.3646
 20
21.4662
 30
0.0000
 11
18.3646
 21
21.6611
 31
0.0000
  0
LINE
  8
21
 10
18.3646
 20
21.6611
 30
0.0000
 11
18.5595
 21
21.8560
 31
0.0000
  0
LINE
  8
21
 10
18.5595
 20
21.8560
 30
0.0000
 11
18.9493
 21
21.8560
 31
0.0000
  0
LINE
  8
21
 10
18.9493
 20
21.8560
 30
0.0000
 11
19.1442
 21
21.6611
 31
0.0000
  0
LINE
  8
21
 10
19.1442
 20
21.6611
 30
0.0000
 11
19.1442
 21
21.2713
 31
0.0000
  0
LINE
  8
21
 10
19.1442
 20
21.2713
 30
0.0000
 11
18.9493
 21
21.0764
 31
0.0000
  0
LINE
  8
21
 10
20.5148
 20
19.9070
 30
0.0000
 11
21.6842
 21
19.9070
 31
0.0000
  0
LINE
  8
21
 10
21.6842
 20
19.9070
 30
0.0000
 11
21.6842
 21
20.4917
 31
0.0000
  0
LINE
  8
21
 10
21.6842
 20
20.4917
 30
0.0000
 11
21.4893
 21
20.6866
 31
0.0000
  0
LINE
  8
21
 10
21.4893
 20
20.6866
 30
0.0000
 11
20.7097
 21
20.6866
 31
0.0000
  0
LINE
  8
21
 10
20.7097
 20
20.6866
 30
0.0000
 11
20.5148
 21
20.4917
 31
0.0000
  0
LINE
  8
21
 10
20.5148
 20
20.4917
 30
0.0000
 11
20.5148
 21
19.9070
 31
0.0000
  0
LINE
  8
21
 10
21.4893
 20
21.0764
 30
0.0000
 11
20.7097
 21
21.0764
 31
0.0000
  0
LINE
  8
21
 10
20.7097
 20
21.0764
 30
0.0000
 11
20.5148
 21
21.2713
 31
0.0000
  0
LINE
  8
21
 10
20.5148
 20
21.2713
 30
0.0000
 11
20.5148
 21
21.6611
 31
0.0000
  0
LINE
  8
21
 10
20.5148
 20
21.6611
 30
0.0000
 11
20.7097
 21
21.8560
 31
0.0000
  0
LINE
  8
21
 10
20.7097
 20
21.8560
 30
0.0000
 11
21.4893
 21
21.8560
 31
0.0000
  0
LINE
  8
21
 10
21.4893
 20
21.8560
 30
0.0000
 11
21.6842
 21
21.6611
 31
0.0000
  0
LINE
  8
21
 10
21.6842
 20
21.6611
 30
0.0000
 11
21.6842
 21
21.2713
 31
0.0000
  0
LINE
  8
21
 10
21.6842
 20
21.2713
 30
0.0000
 11
21.4893
 21
21.0764
 31
0.0000
  0
LINE
  8
21
 10
21.4893
 20
21.0764
 30
0.0000
 11
20.7097
 21
21.8560
 31
0.0000
  0
LINE
  8
21
 10
24.2242
 20
19.9070
 30
0.0000
 11
23.4446
 21
19.9070
 31
0.0000
  0
LINE
  8
21
 10
23.4446
 20
19.9070
 30
0.0000
 11
23.0548
 21
20.2968
 31
0.0000
  0
LINE
  8
21
 10
23.0548
 20
20.2968
 30
0.0000
 11
23.4446
 21
20.6866
 31
0.0000
  0
LINE
  8
21
 10
23.4446
 20
20.6866
 30
0.0000
 11
24.2242
 21
20.6866
 31
0.0000
  0
LINE
  8
21
 10
23.6395
 20
19.9070
 30
0.0000
 11
23.6395
 21
20.6866
 31
0.0000
  0
LINE
  8
21
 10
24.0293
 20
21.0764
 30
0.0000
 11
23.2497
 21
21.0764
 31
0.0000
  0
LINE
  8
21
 10
23.2497
 20
21.0764
 30
0.0000
 11
23.0548
 21
21.2713
 31
0.0000
  0
LINE
  8
21
 10
23.0548
 20
21.2713
 30
0.0000
 11
23.0548
 21
21.6611
 31
0.0000
  0
LINE
  8
21
 10
23.0548
 20
21.6611
 30
0.0000
 11
23.2497
 21
21.8560
 31
0.0000
  0
LINE
  8
21
 10
23.2497
 20
21.8560
 30
0.0000
 11
24.0293
 21
21.8560
 31
0.0000
  0
LINE
  8
21
 10
24.0293
 20
21.8560
 30
0.0000
 11
24.2242
 21
21.6611
 31
0.0000
  0
LINE
  8
21
 10
24.2242
 20
21.6611
 30
0.0000
 11
24.2242
 21
21.2713
 31
0.0000
  0
LINE
  8
21
 10
24.2242
 20
21.2713
 30
0.0000
 11
24.0293
 21
21.0764
 31
0.0000
  0
LINE
  8
21
 10
24.0293
 20
21.0764
 30
0.0000
 11
23.2497
 21
21.8560
 31
0.0000
  0
LINE
  8
21
 10
26.7642
 20
18.7376
 30
0.0000
 11
25.5948
 21
18.7376
 31
0.0000
  0
LINE
  8
21
 10
25.5948
 20
18.7376
 30
0.0000
 11
25.5948
 21
19.3223
 31
0.0000
  0
LINE
  8
21
 10
25.5948
 20
19.3223
 30
0.0000
 11
25.7897
 21
19.5172
 31
0.0000
  0
LINE
  8
21
 10
25.7897
 20
19.5172
 30
0.0000
 11
26.1795
 21
19.5172
 31
0.0000
  0
LINE
  8
21
 10
26.1795
 20
19.5172
 30
0.0000
 11
26.3744
 21
19.3223
 31
0.0000
  0
LINE
  8
21
 10
26.3744
 20
19.3223
 30
0.0000
 11
26.3744
 21
18.7376
 31
0.0000
  0
LINE
  8
21
 10
26.3744
 20
19.1274
 30
0.0000
 11
26.7642
 21
19.5172
 31
0.0000
  0
LINE
  8
21
 10
25.7897
 20
20.6866
 30
0.0000
 11
25.5948
 21
20.4917
 31
0.0000
  0
LINE
  8
21
 10
25.5948
 20
20.4917
 30
0.0000
 11
25.5948
 21
20.1019
 31
0.0000
  0
LINE
  8
21
 10
25.5948
 20
20.1019
 30
0.0000
 11
25.7897
 21
19.9070
 31
0.0000
  0
LINE
  8
21
 10
25.7897
 20
19.9070
 30
0.0000
 11
25.9846
 21
19.9070
 31
0.0000
  0
LINE
  8
21
 10
25.9846
 20
19.9070
 30
0.0000
 11
26.1795
 21
20.1019
 31
0.0000
  0
LINE
  8
21
 10
26.1795
 20
20.1019
 30
0.0000
 11
26.1795
 21
20.4917
 31
0.0000
  0
LINE
  8
21
 10
26.1795
 20
20.4917
 30
0.0000
 11
26.3744
 21
20.6866
 31
0.0000
  0
LINE
  8
21
 10
26.3744
 20
20.6866
 30
0.0000
 11
26.5693
 21
20.6866
 31
0.0000
  0
LINE
  8
21
 10
26.5693
 20
20.6866
 30
0.0000
 11
26.7642
 21
20.4917
 31
0.0000
  0
LINE
  8
21
 10
26.7642
 20
20.4917
 30
0.0000
 11
26.7642
 21
20.1019
 31
0.0000
  0
LINE
  8
21
 10
26.7642
 20
20.1019
 30
0.0000
 11
26.5693
 21
19.9070
 31
0.0000
  0
LINE
  8
21
 10
26.7642
 20
21.4662
 30
0.0000
 11
25.5948
 21
21.4662
 31
0.0000
  0
LINE
  8
21
 10
25.5948
 20
21.0764
 30
0.0000
 11
25.5948
 21
21.8560
 31
0.0000
  0
LINE
  8
21
 10
7.8148
 20
3.5416
 30
0.0000
 11
7.8148
 21
2.7620
 31
0.0000
  0
LINE
  8
21
 10
7.8148
 20
2.7620
 30
0.0000
 11
8.3995
 21
2.7620
 31
0.0000
  0
LINE
  8
21
 10
8.3995
 20
2.7620
 30
0.0000
 11
8.2046
 21
3.1518
 31
0.0000
  0
LINE
  8
21
 10
8.2046
 20
3.1518
 30
0.0000
 11
8.2046
 21
3.3467
 31
0.0000
  0
LINE
  8
21
 10
8.2046
 20
3.3467
 30
0.0000
 11
8.3995
 21
3.5416
 31
0.0000
  0
LINE
  8
21
 10
8.3995
 20
3.5416
 30
0.0000
 11
8.7893
 21
3.5416
 31
0.0000
  0
LINE
  8
21
 10
8.7893
 20
3.5416
 30
0.0000
 11
8.9842
 21
3.3467
 31
0.0000
  0
LINE
  8
21
 10
8.9842
 20
3.3467
 30
0.0000
 11
8.9842
 21
2.9569
 31
0.0000
  0
LINE
  8
21
 10
8.9842
 20
2.9569
 30
0.0000
 11
8.7893
 21
2.7620
 31
0.0000
  0
LINE
  8
21
 10
7.8148
 20
3.9314
 30
0.0000
 11
8.5944
 21
3.9314
 31
0.0000
  0
LINE
  8
21
 10
8.5944
 20
3.9314
 30
0.0000
 11
8.9842
 21
4.3212
 31
0.0000
  0
LINE
  8
21
 10
8.9842
 20
4.3212
 30
0.0000
 11
8.5944
 21
4.7110
 31
0.0000
  0
LINE
  8
21
 10
8.5944
 20
4.7110
 30
0.0000
 11
7.8148
 21
4.7110
 31
0.0000
  0
LINE
  8
21
 10
10.5497
 20
3.6422
 30
0.0000
 11
10.3548
 21
3.4473
 31
0.0000
  0
LINE
  8
21
 10
10.3548
 20
3.4473
 30
0.0000
 11
10.3548
 21
3.0575
 31
0.0000
  0
LINE
  8
21
 10
10.3548
 20
3.0575
 30
0.0000
 11
10.5497
 21
2.8626
 31
0.0000
  0
LINE
  8
21
 10
10.5497
 20
2.8626
 30
0.0000
 11
11.3293
 21
2.8626
 31
0.0000
  0
LINE
  8
21
 10
11.3293
 20
2.8626
 30
0.0000
 11
11.5242
 21
3.0575
 31
0.0000
  0
LINE
  8
21
 10
11.5242
 20
3.0575
 30
0.0000
 11
11.5242
 21
3.4473
 31
0.0000
  0
LINE
  8
21
 10
11.5242
 20
3.4473
 30
0.0000
 11
11.3293
 21
3.6422
 31
0.0000
  0
LINE
  8
21
 10
11.3293
 20
3.6422
 30
0.0000
 11
10.9395
 21
3.6422
 31
0.0000
  0
LINE
  8
21
 10
10.9395
 20
3.6422
 30
0.0000
 11
10.9395
 21
3.2524
 31
0.0000
  0
LINE
  8
21
 10
11.5242
 20
4.0320
 30
0.0000
 11
10.3548
 21
4.0320
 31
0.0000
  0
LINE
  8
21
 10
10.3548
 20
4.0320
 30
0.0000
 11
11.5242
 21
4.8116
 31
0.0000
  0
LINE
  8
21
 10
11.5242
 20
4.8116
 30
0.0000
 11
10.3548
 21
4.8116
 31
0.0000
  0
LINE
  8
21
 10
10.3548
 20
5.2014
 30
0.0000
 11
11.5242
 21
5.2014
 31
0.0000
  0
LINE
  8
21
 10
11.5242
 20
5.2014
 30
0.0000
 11
11.5242
 21
5.7861
 31
0.0000
  0
LINE
  8
21
 10
11.5242
 20
5.7861
 30
0.0000
 11
11.3293
 21
5.9810
 31
0.0000
  0
LINE
  8
21
 10
11.3293
 20
5.9810
 30
0.0000
 11
10.5497
 21
5.9810
 31
0.0000
  0
LINE
  8
21
 10
10.5497
 20
5.9810
 30
0.0000
 11
10.3548
 21
5.7861
 31
0.0000
  0
LINE
  8
21
 10
10.3548
 20
5.7861
 30
0.0000
 11
10.3548
 21
5.2014
 31
0.0000
  0
LINE
  8
21
 10
12.8948
 20
2.7620
 30
0.0000
 11
14.0642
 21
2.7620
 31
0.0000
  0
LINE
  8
21
 10
14.0642
 20
2.7620
 30
0.0000
 11
14.0642
 21
3.3467
 31
0.0000
  0
LINE
  8
21
 10
14.0642
 20
3.3467
 30
0.0000
 11
13.8693
 21
3.5416
 31
0.0000
  0
LINE
  8
21
 10
13.8693
 20
3.5416
 30
0.0000
 11
13.0897
 21
3.5416
 31
0.0000
  0
LINE
  8
21
 10
13.0897
 20
3.5416
 30
0.0000
 11
12.8948
 21
3.3467
 31
0.0000
  0
LINE
  8
21
 10
12.8948
 20
3.3467
 30
0.0000
 11
12.8948
 21
2.7620
 31
0.0000
  0
LINE
  8
21
 10
14.0642
 20
4.5161
 30
0.0000
 11
12.8948
 21
4.5161
 31
0.0000
  0
LINE
  8
21
 10
12.8948
 20
4.5161
 30
0.0000
 11
13.4795
 21
3.9314
 31
0.0000
  0
LINE
  8
21
 10
13.4795
 20
3.9314
 30
0.0000
 11
13.4795
 21
4.7110
 31
0.0000
  0
LINE
  8
21
 10
15.4348
 20
2.7620
 30
0.0000
 11
16.6042
 21
2.7620
 31
0.0000
  0
LINE
  8
21
 10
16.6042
 20
2.7620
 30
0.0000
 11
16.6042
 21
3.3467
 31
0.0000
  0
LINE
  8
21
 10
16.6042
 20
3.3467
 30
0.0000
 11
16.4093
 21
3.5416
 31
0.0000
  0
LINE
  8
21
 10
16.4093
 20
3.5416
 30
0.0000
 11
15.6297
 21
3.5416
 31
0.0000
  0
LINE
  8
21
 10
15.6297
 20
3.5416
 30
0.0000
 11
15.4348
 21
3.3467
 31
0.0000
  0
LINE
  8
21
 10
15.4348
 20
3.3467
 30
0.0000
 11
15.4348
 21
2.7620
 31
0.0000
  0
LINE
  8
21
 10
15.6297
 20
3.9314
 30
0.0000
 11
15.4348
 21
4.1263
 31
0.0000
  0
LINE
  8
21
 10
15.4348
 20
4.1263
 30
0.0000
 11
15.4348
 21
4.5161
 31
0.0000
  0
LINE
  8
21
 10
15.4348
 20
4.5161
 30
0.0000
 11
15.6297
 21
4.7110
 31
0.0000
  0
LINE
  8
21
 10
15.6297
 20
4.7110
 30
0.0000
 11
15.8246
 21
4.7110
 31
0.0000
  0
LINE
  8
21
 10
15.8246
 20
4.7110
 30
0.0000
 11
16.0195
 21
4.5161
 31
0.0000
  0
LINE
  8
21
 10
16.0195
 20
4.5161
 30
0.0000
 11
16.0195
 21
4.3212
 31
0.0000
  0
LINE
  8
21
 10
16.0195
 20
4.5161
 30
0.0000
 11
16.2144
 21
4.7110
 31
0.0000
  0
LINE
  8
21
 10
16.2144
 20
4.7110
 30
0.0000
 11
16.4093
 21
4.7110
 31
0.0000
  0
LINE
  8
21
 10
16.4093
 20
4.7110
 30
0.0000
 11
16.6042
 21
4.5161
 31
0.0000
  0
LINE
  8
21
 10
16.6042
 20
4.5161
 30
0.0000
 11
16.6042
 21
4.1263
 31
0.0000
  0
LINE
  8
21
 10
16.6042
 20
4.1263
 30
0.0000
 11
16.4093
 21
3.9314
 31
0.0000
  0
LINE
  8
21
 10
17.9748
 20
2.7620
 30
0.0000
 11
19.1442
 21
2.7620
 31
0.0000
  0
LINE
  8
21
 10
19.1442
 20
2.7620
 30
0.0000
 11
19.1442
 21
3.3467
 31
0.0000
  0
LINE
  8
21
 10
19.1442
 20
3.3467
 30
0.0000
 11
18.9493
 21
3.5416
 31
0.0000
  0
LINE
  8
21
 10
18.9493
 20
3.5416
 30
0.0000
 11
18.1697
 21
3.5416
 31
0.0000
  0
LINE
  8
21
 10
18.1697
 20
3.5416
 30
0.0000
 11
17.9748
 21
3.3467
 31
0.0000
  0
LINE
  8
21
 10
17.9748
 20
3.3467
 30
0.0000
 11
17.9748
 21
2.7620
 31
0.0000
  0
LINE
  8
21
 10
19.1442
 20
4.7110
 30
0.0000
 11
19.1442
 21
3.9314
 31
0.0000
  0
LINE
  8
21
 10
19.1442
 20
3.9314
 30
0.0000
 11
18.3646
 21
4.7110
 31
0.0000
  0
LINE
  8
21
 10
18.3646
 20
4.7110
 30
0.0000
 11
18.1697
 21
4.7110
 31
0.0000
  0
LINE
  8
21
 10
18.1697
 20
4.7110
 30
0.0000
 11
17.9748
 21
4.5161
 31
0.0000
  0
LINE
  8
21
 10
17.9748
 20
4.5161
 30
0.0000
 11
17.9748
 21
4.1263
 31
0.0000
  0
LINE
  8
21
 10
17.9748
 20
4.1263
 30
0.0000
 11
18.1697
 21
3.9314
 31
0.0000
  0
LINE
  8
21
 10
20.5148
 20
2.7620
 30
0.0000
 11
21.6842
 21
2.7620
 31
0.0000
  0
LINE
  8
21
 10
21.6842
 20
2.7620
 30
0.0000
 11
21.6842
 21
3.3467
 31
0.0000
  0
LINE
  8
21
 10
21.6842
 20
3.3467
 30
0.0000
 11
21.4893
 21
3.5416
 31
0.0000
  0
LINE
  8
21
 10
21.4893
 20
3.5416
 30
0.0000
 11
20.7097
 21
3.5416
 31
0.0000
  0
LINE
  8
21
 10
20.7097
 20
3.5416
 30
0.0000
 11
20.5148
 21
3.3467
 31
0.0000
  0
LINE
  8
21
 10
20.5148
 20
3.3467
 30
0.0000
 11
20.5148
 21
2.7620
 31
0.0000
  0
LINE
  8
21
 10
20.9046
 20
3.9314
 30
0.0000
 11
20.5148
 21
4.3212
 31
0.0000
  0
LINE
  8
21
 10
20.5148
 20
4.3212
 30
0.0000
 11
21.6842
 21
4.3212
 31
0.0000
  0
LINE
  8
21
 10
21.6842
 20
3.9314
 30
0.0000
 11
21.6842
 21
4.7110
 31
0.0000
  0
LINE
  8
21
 10
24.2242
 20
2.7620
 30
0.0000
 11
23.0548
 21
2.7620
 31
0.0000
  0
LINE
  8
21
 10
23.0548
 20
2.7620
 30
0.0000
 11
23.0548
 21
3.3467
 31
0.0000
  0
LINE
  8
21
 10
23.0548
 20
3.3467
 30
0.0000
 11
23.2497
 21
3.5416
 31
0.0000
  0
LINE
  8
21
 10
23.2497
 20
3.5416
 30
0.0000
 11
23.6395
 21
3.5416
 31
0.0000
  0
LINE
  8
21
 10
23.6395
 20
3.5416
 30
0.0000
 11
23.8344
 21
3.3467
 31
0.0000
  0
LINE
  8
21
 10
23.8344
 20
3.3467
 30
0.0000
 11
23.8344
 21
2.7620
 31
0.0000
  0
LINE
  8
21
 10
23.8344
 20
3.1518
 30
0.0000
 11
24.2242
 21
3.5416
 31
0.0000
  0
LINE
  8
21
 10
23.0548
 20
3.9314
 30
0.0000
 11
24.2242
 21
4.7110
 31
0.0000
  0
LINE
  8
21
 10
23.0548
 20
4.7110
 30
0.0000
 11
24.2242
 21
3.9314
 31
0.0000
  0
LINE
  8
21
 10
26.7642
 20
3.1518
 30
0.0000
 11
25.5948
 21
3.1518
 31
0.0000
  0
LINE
  8
21
 10
25.5948
 20
2.7620
 30
0.0000
 11
25.5948
 21
3.5416
 31
0.0000
  0
LINE
  8
21
 10
25.5948
 20
3.9314
 30
0.0000
 11
26.7642
 21
4.7110
 31
0.0000
  0
LINE
  8
21
 10
25.5948
 20
4.7110
 30
0.0000
 11
26.7642
 21
3.9314
 31
0.0000
  0
INSERT
  8
21
  2
RECT
 10
17.2900
 20
24.1000
 30
0.0000
 41
2.5400
 42
20.3200
 43
1.0000
 50
270.0000
  0
INSERT
  8
21
  2
RECT
 10
17.2900
 20
1.2400
 30
0.0000
 41
2.5400
 42
20.3200
 43
1.0000
 50
270.0000
  0
POINT
  8
23
 10
28.3800
 20
16.1100
 30
0.0000
  0
LINE
  8
21
 10
19.7186
 20
15.8560
 30
0.0000
 11
19.4900
 21
15.8560
 31
0.0000
  0
LINE
  8
21
 10
22.2586
 20
15.8560
 30
0.0000
 11
21.8014
 21
15.8560
 31
0.0000
  0
LINE
  8
21
 10
24.7986
 20
15.8560
 30
0.0000
 11
24.3414
 21
15.8560
 31
0.0000
  0
LINE
  8
21
 10
27.3386
 20
15.8560
 30
0.0000
 11
26.8814
 21
15.8560
 31
0.0000
  0
LINE
  8
21
 10
29.4214
 20
8.7440
 30
0.0000
 11
29.6500
 21
8.7440
 31
0.0000
  0
LINE
  8
21
 10
29.6500
 20
8.7440
 30
0.0000
 11
29.6500
 21
15.8560
 31
0.0000
  0
LINE
  8
21
 10
29.6500
 20
15.8560
 30
0.0000
 11
29.4214
 21
15.8560
 31
0.0000
  0
LINE
  8
21
 10
19.4900
 20
15.8560
 30
0.0000
 11
19.4900
 21
12.6048
 31
0.0000
  0
LINE
  8
21
 10
19.4900
 20
12.6048
 30
0.0000
 11
19.4900
 21
11.9952
 31
0.0000
  0
LINE
  8
21
 10
19.4900
 20
11.9952
 30
0.0000
 11
19.4900
 21
8.7440
 31
0.0000
  0
LINE
  8
21
 10
19.4900
 20
8.7440
 30
0.0000
 11
19.6678
 21
8.7440
 31
0.0000
  0
LINE
  8
21
 10
21.8522
 20
8.7440
 30
0.0000
 11
22.2586
 21
8.7440
 31
0.0000
  0
LINE
  8
21
 10
24.3414
 20
8.7440
 30
0.0000
 11
24.7986
 21
8.7440
 31
0.0000
  0
LINE
  8
21
 10
26.8814
 20
8.7440
 30
0.0000
 11
27.3386
 21
8.7440
 31
0.0000
  0
ARC
  8
21
 10
19.4900
 20
12.3000
 30
0.0000
 40
0.3048
 50
270.0000
 51
90.0000
  0
LINE
  8
21
 10
18.8626
 20
7.9439
 30
0.0000
 11
19.6592
 21
8.7404
 31
0.0000
  0
LINE
  8
21
 10
19.6592
 20
7.9439
 30
0.0000
 11
18.8626
 21
8.7404
 31
0.0000
  0
LINE
  8
21
 10
19.2609
 20
7.9439
 30
0.0000
 11
19.2609
 21
8.7404
 31
0.0000
  0
LINE
  8
21
 10
19.6592
 20
8.3422
 30
0.0000
 11
18.8626
 21
8.3422
 31
0.0000
  0
POINT
  8
23
 10
70.8100
 20
26.2700
 30
0.0000
  0
LINE
  8
21
 10
66.6600
 20
26.1700
 30
0.0000
 11
74.9600
 21
26.1700
 31
0.0000
  0
LINE
  8
21
 10
74.9600
 20
26.1700
 30
0.0000
 11
74.9600
 21
16.1700
 31
0.0000
  0
LINE
  8
21
 10
74.9600
 20
14.2200
 30
0.0000
 11
74.9600
 21
13.3700
 31
0.0000
  0
LINE
  8
21
 10
74.9600
 20
13.3700
 30
0.0000
 11
72.0600
 21
13.3700
 31
0.0000
  0
LINE
  8
21
 10
69.5100
 20
13.3700
 30
0.0000
 11
66.6600
 21
13.3700
 31
0.0000
  0
LINE
  8
21
 10
66.6600
 20
13.3700
 30
0.0000
 11
66.6600
 21
13.8200
 31
0.0000
  0
LINE
  8
21
 10
66.6600
 20
15.7200
 30
0.0000
 11
66.6600
 21
17.2200
 31
0.0000
  0
LINE
  8
21
 10
66.6600
 20
19.5700
 30
0.0000
 11
66.6600
 21
26.1700
 31
0.0000
  0
LINE
  8
21
 10
67.9100
 20
26.2700
 30
0.0000
 11
67.9100
 21
28.6700
 31
0.0000
  0
LINE
  8
21
 10
67.9100
 20
28.6700
 30
0.0000
 11
73.7100
 21
28.6700
 31
0.0000
  0
LINE
  8
21
 10
73.7100
 20
28.6700
 30
0.0000
 11
73.7100
 21
26.2700
 31
0.0000
  0
CIRCLE
  8
20
 10
68.3100
 20
23.2700
 30
0.0000
 40
0.5500
  0
CIRCLE
  8
20
 10
73.3100
 20
23.2700
 30
0.0000
 40
0.5500
  0
ENDSEC
  0
EOF
